<svg xmlns="http://www.w3.org/2000/svg" xmlns:xlink="http://www.w3.org/1999/xlink" width="400" zoomAndPan="magnify" viewBox="0 0 300 299.999988" height="400" preserveAspectRatio="xMidYMid meet" version="1.0"><path fill="#ffffff" d="M 265.660156 232.292969 L 229.882812 190.5625 L 229.882812 111.121094 C 229.84375 108.644531 229.699219 106.175781 229.449219 103.710938 C 229.199219 101.25 228.839844 98.800781 228.378906 96.367188 C 227.914062 93.9375 227.34375 91.527344 226.671875 89.144531 C 226 86.761719 225.222656 84.414062 224.347656 82.097656 C 223.46875 79.78125 222.492188 77.507812 221.417969 75.277344 C 220.34375 73.046875 219.175781 70.867188 217.910156 68.738281 C 216.648438 66.609375 215.292969 64.539062 213.847656 62.527344 C 212.40625 60.515625 210.878906 58.570312 209.265625 56.691406 C 207.652344 54.8125 205.960938 53.003906 204.191406 51.273438 C 202.421875 49.539062 200.578125 47.886719 198.667969 46.316406 C 196.753906 44.742188 194.777344 43.257812 192.734375 41.855469 C 190.691406 40.453125 188.589844 39.144531 186.433594 37.925781 C 184.277344 36.707031 182.074219 35.585938 179.820312 34.558594 C 177.566406 33.53125 175.273438 32.605469 172.9375 31.777344 C 170.605469 30.949219 168.238281 30.222656 165.839844 29.601562 C 163.445312 28.976562 161.023438 28.460938 158.582031 28.046875 L 158.582031 13.921875 C 158.582031 13.070312 158.5 12.230469 158.332031 11.394531 C 158.167969 10.558594 157.921875 9.75 157.597656 8.960938 C 157.269531 8.175781 156.871094 7.429688 156.398438 6.722656 C 155.925781 6.015625 155.386719 5.359375 154.785156 4.757812 C 154.183594 4.15625 153.527344 3.621094 152.820312 3.148438 C 152.113281 2.675781 151.367188 2.273438 150.578125 1.949219 C 149.792969 1.625 148.984375 1.378906 148.148438 1.210938 C 147.3125 1.046875 146.46875 0.960938 145.617188 0.960938 C 144.769531 0.960938 143.925781 1.046875 143.089844 1.210938 C 142.253906 1.378906 141.445312 1.625 140.65625 1.949219 C 139.871094 2.273438 139.125 2.675781 138.417969 3.148438 C 137.710938 3.621094 137.054688 4.15625 136.453125 4.757812 C 135.851562 5.359375 135.3125 6.015625 134.839844 6.722656 C 134.367188 7.429688 133.96875 8.175781 133.640625 8.960938 C 133.316406 9.75 133.070312 10.558594 132.90625 11.394531 C 132.738281 12.230469 132.65625 13.070312 132.65625 13.921875 L 132.65625 28.046875 C 130.214844 28.460938 127.792969 28.976562 125.398438 29.601562 C 123 30.222656 120.632812 30.949219 118.300781 31.777344 C 115.964844 32.605469 113.671875 33.53125 111.417969 34.558594 C 109.164062 35.585938 106.960938 36.707031 104.804688 37.925781 C 102.648438 39.144531 100.546875 40.453125 98.503906 41.855469 C 96.460938 43.257812 94.484375 44.742188 92.570312 46.316406 C 90.660156 47.886719 88.816406 49.539062 87.046875 51.273438 C 85.277344 53.003906 83.585938 54.8125 81.972656 56.691406 C 80.359375 58.570312 78.832031 60.515625 77.386719 62.527344 C 75.945312 64.539062 74.589844 66.609375 73.328125 68.738281 C 72.0625 70.867188 70.894531 73.046875 69.820312 75.277344 C 68.746094 77.507812 67.769531 79.78125 66.890625 82.097656 C 66.015625 84.414062 65.238281 86.761719 64.566406 89.144531 C 63.894531 91.527344 63.324219 93.9375 62.859375 96.367188 C 62.398438 98.800781 62.039062 101.25 61.789062 103.710938 C 61.539062 106.175781 61.394531 108.644531 61.355469 111.121094 L 61.355469 190.5625 L 25.578125 232.292969 C 24.773438 233.234375 24.117188 234.269531 23.605469 235.402344 C 23.097656 236.53125 22.757812 237.710938 22.589844 238.9375 C 22.417969 240.164062 22.421875 241.390625 22.605469 242.613281 C 22.785156 243.839844 23.136719 245.015625 23.65625 246.140625 C 24.171875 247.265625 24.839844 248.292969 25.652344 249.230469 C 26.464844 250.164062 27.394531 250.964844 28.4375 251.632812 C 29.480469 252.300781 30.597656 252.808594 31.789062 253.15625 C 32.976562 253.503906 34.191406 253.679688 35.429688 253.679688 L 88.839844 253.679688 C 89.222656 255.261719 89.667969 256.832031 90.179688 258.378906 C 90.691406 259.925781 91.265625 261.453125 91.902344 262.953125 C 92.539062 264.453125 93.234375 265.925781 93.996094 267.371094 C 94.753906 268.8125 95.570312 270.222656 96.445312 271.597656 C 97.320312 272.972656 98.25 274.3125 99.238281 275.609375 C 100.222656 276.910156 101.261719 278.167969 102.351562 279.378906 C 103.441406 280.59375 104.578125 281.757812 105.761719 282.878906 C 106.949219 284 108.179688 285.066406 109.453125 286.085938 C 110.726562 287.101562 112.042969 288.066406 113.394531 288.976562 C 114.75 289.886719 116.136719 290.738281 117.5625 291.53125 C 118.988281 292.328125 120.441406 293.0625 121.925781 293.738281 C 123.410156 294.410156 124.921875 295.023438 126.457031 295.574219 C 127.992188 296.125 129.546875 296.609375 131.125 297.03125 C 132.699219 297.453125 134.289062 297.808594 135.894531 298.097656 C 137.5 298.386719 139.113281 298.613281 140.738281 298.769531 C 142.359375 298.925781 143.988281 299.015625 145.617188 299.039062 C 147.25 299.015625 148.878906 298.925781 150.5 298.769531 C 152.125 298.613281 153.738281 298.386719 155.34375 298.097656 C 156.949219 297.808594 158.539062 297.453125 160.113281 297.03125 C 161.691406 296.609375 163.246094 296.125 164.78125 295.574219 C 166.316406 295.023438 167.828125 294.410156 169.3125 293.738281 C 170.796875 293.0625 172.25 292.328125 173.675781 291.53125 C 175.097656 290.738281 176.488281 289.886719 177.84375 288.976562 C 179.195312 288.066406 180.511719 287.101562 181.785156 286.085938 C 183.058594 285.066406 184.289062 284 185.472656 282.878906 C 186.660156 281.757812 187.796875 280.59375 188.886719 279.378906 C 189.976562 278.167969 191.015625 276.910156 192 275.609375 C 192.988281 274.3125 193.917969 272.972656 194.792969 271.597656 C 195.667969 270.222656 196.484375 268.8125 197.242188 267.371094 C 198 265.925781 198.699219 264.453125 199.335938 262.953125 C 199.972656 261.453125 200.546875 259.925781 201.058594 258.378906 C 201.570312 256.832031 202.015625 255.261719 202.398438 253.679688 L 255.808594 253.679688 C 257.046875 253.679688 258.261719 253.503906 259.449219 253.15625 C 260.640625 252.808594 261.757812 252.300781 262.800781 251.632812 C 263.84375 250.964844 264.773438 250.164062 265.585938 249.230469 C 266.398438 248.296875 267.066406 247.265625 267.582031 246.140625 C 268.101562 245.015625 268.453125 243.839844 268.632812 242.613281 C 268.816406 241.390625 268.820312 240.164062 268.648438 238.9375 C 268.480469 237.710938 268.140625 236.53125 267.632812 235.402344 C 267.121094 234.269531 266.464844 233.234375 265.660156 232.292969 Z M 145.617188 273.117188 C 144.070312 273.078125 142.527344 272.929688 140.996094 272.671875 C 139.46875 272.417969 137.964844 272.058594 136.484375 271.59375 C 135.003906 271.125 133.5625 270.558594 132.164062 269.894531 C 130.761719 269.226562 129.414062 268.464844 128.121094 267.609375 C 126.828125 266.753906 125.597656 265.816406 124.4375 264.789062 C 123.273438 263.761719 122.1875 262.660156 121.179688 261.480469 C 120.167969 260.304688 119.246094 259.0625 118.414062 257.753906 C 117.578125 256.445312 116.835938 255.089844 116.191406 253.679688 L 175.046875 253.679688 C 174.402344 255.089844 173.660156 256.445312 172.824219 257.753906 C 171.992188 259.0625 171.070312 260.304688 170.058594 261.480469 C 169.050781 262.660156 167.964844 263.761719 166.800781 264.789062 C 165.640625 265.816406 164.410156 266.753906 163.117188 267.609375 C 161.824219 268.464844 160.476562 269.226562 159.074219 269.894531 C 157.675781 270.558594 156.234375 271.125 154.753906 271.59375 C 153.273438 272.058594 151.769531 272.417969 150.238281 272.671875 C 148.710938 272.929688 147.167969 273.078125 145.617188 273.117188 Z M 63.625 227.757812 L 84.171875 203.78125 C 85.175781 202.609375 85.945312 201.296875 86.480469 199.851562 C 87.015625 198.402344 87.285156 196.902344 87.285156 195.359375 L 87.285156 111.121094 C 87.285156 109.210938 87.378906 107.304688 87.566406 105.40625 C 87.75 103.503906 88.03125 101.617188 88.40625 99.742188 C 88.777344 97.871094 89.242188 96.019531 89.796875 94.191406 C 90.351562 92.363281 90.992188 90.566406 91.722656 88.804688 C 92.457031 87.039062 93.269531 85.3125 94.171875 83.628906 C 95.074219 81.945312 96.054688 80.308594 97.113281 78.71875 C 98.175781 77.132812 99.3125 75.601562 100.523438 74.125 C 101.738281 72.648438 103.019531 71.234375 104.371094 69.882812 C 105.71875 68.53125 107.132812 67.25 108.613281 66.039062 C 110.089844 64.828125 111.621094 63.691406 113.210938 62.628906 C 114.796875 61.570312 116.433594 60.589844 118.121094 59.6875 C 119.804688 58.789062 121.53125 57.972656 123.296875 57.242188 C 125.058594 56.511719 126.855469 55.867188 128.683594 55.3125 C 130.511719 54.757812 132.363281 54.292969 134.238281 53.921875 C 136.113281 53.550781 138 53.269531 139.902344 53.082031 C 141.800781 52.894531 143.707031 52.800781 145.617188 52.800781 C 147.53125 52.800781 149.4375 52.894531 151.335938 53.082031 C 153.238281 53.269531 155.125 53.550781 157 53.921875 C 158.875 54.292969 160.726562 54.757812 162.554688 55.3125 C 164.382812 55.867188 166.179688 56.511719 167.941406 57.242188 C 169.707031 57.972656 171.433594 58.789062 173.117188 59.6875 C 174.804688 60.589844 176.441406 61.570312 178.027344 62.628906 C 179.617188 63.691406 181.148438 64.828125 182.625 66.039062 C 184.105469 67.25 185.515625 68.53125 186.867188 69.882812 C 188.21875 71.234375 189.5 72.648438 190.714844 74.125 C 191.925781 75.601562 193.0625 77.132812 194.125 78.71875 C 195.183594 80.308594 196.164062 81.945312 197.066406 83.628906 C 197.96875 85.3125 198.78125 87.039062 199.515625 88.804688 C 200.246094 90.566406 200.886719 92.363281 201.441406 94.191406 C 201.996094 96.019531 202.460938 97.871094 202.832031 99.742188 C 203.207031 101.617188 203.488281 103.503906 203.671875 105.40625 C 203.859375 107.304688 203.953125 109.210938 203.953125 111.121094 L 203.953125 195.359375 C 203.953125 196.902344 204.222656 198.398438 204.757812 199.847656 C 205.292969 201.296875 206.0625 202.609375 207.066406 203.78125 L 227.613281 227.757812 Z M 63.625 227.757812 " fill-opacity="1" fill-rule="nonzero"/></svg>