<svg xmlns="http://www.w3.org/2000/svg" xmlns:xlink="http://www.w3.org/1999/xlink" width="400" zoomAndPan="magnify" viewBox="0 0 300 299.999988" height="400" preserveAspectRatio="xMidYMid meet" version="1.0"><defs><clipPath id="id1"><path d="M 129 23.25 L 171 23.25 L 171 91 L 129 91 Z M 129 23.25 " clip-rule="nonzero"/></clipPath></defs><g clip-path="url(#id1)"><path fill="#706f6f" d="M 134.722656 23.941406 L 165.269531 23.941406 C 165.582031 23.941406 165.890625 23.972656 166.195312 24.03125 C 166.503906 24.09375 166.800781 24.183594 167.085938 24.304688 C 167.375 24.421875 167.648438 24.570312 167.910156 24.742188 C 168.167969 24.914062 168.40625 25.113281 168.628906 25.332031 C 168.847656 25.554688 169.046875 25.792969 169.21875 26.054688 C 169.390625 26.3125 169.539062 26.585938 169.65625 26.875 C 169.777344 27.164062 169.867188 27.460938 169.929688 27.765625 C 169.988281 28.070312 170.019531 28.378906 170.019531 28.691406 L 170.019531 85.707031 C 170.019531 86.019531 169.988281 86.328125 169.929688 86.632812 C 169.867188 86.941406 169.777344 87.238281 169.65625 87.527344 C 169.539062 87.8125 169.390625 88.085938 169.21875 88.347656 C 169.046875 88.605469 168.847656 88.847656 168.628906 89.066406 C 168.40625 89.285156 168.167969 89.484375 167.910156 89.65625 C 167.648438 89.832031 167.375 89.976562 167.085938 90.097656 C 166.800781 90.214844 166.503906 90.304688 166.195312 90.367188 C 165.890625 90.425781 165.582031 90.457031 165.269531 90.457031 L 134.722656 90.457031 C 134.414062 90.457031 134.105469 90.425781 133.796875 90.367188 C 133.492188 90.304688 133.195312 90.214844 132.90625 90.097656 C 132.617188 89.976562 132.34375 89.832031 132.085938 89.65625 C 131.824219 89.484375 131.585938 89.285156 131.367188 89.066406 C 131.144531 88.847656 130.949219 88.605469 130.773438 88.347656 C 130.601562 88.085938 130.457031 87.8125 130.335938 87.527344 C 130.214844 87.238281 130.125 86.941406 130.066406 86.632812 C 130.003906 86.328125 129.972656 86.019531 129.972656 85.707031 L 129.972656 28.691406 C 129.972656 28.378906 130.003906 28.070312 130.066406 27.765625 C 130.125 27.460938 130.214844 27.164062 130.335938 26.875 C 130.457031 26.585938 130.601562 26.3125 130.773438 26.054688 C 130.949219 25.792969 131.144531 25.554688 131.367188 25.332031 C 131.585938 25.113281 131.824219 24.914062 132.085938 24.742188 C 132.34375 24.570312 132.617188 24.421875 132.90625 24.304688 C 133.195312 24.183594 133.492188 24.09375 133.796875 24.03125 C 134.105469 23.972656 134.414062 23.941406 134.722656 23.941406 Z M 134.722656 23.941406 " fill-opacity="1" fill-rule="evenodd"/></g><path fill="#706f6f" d="M 124.617188 71.113281 L 27.148438 71.113281 C 12.214844 71.113281 -0.00390625 83.332031 -0.00390625 98.261719 L -0.00390625 242.152344 C -0.00390625 257.085938 12.214844 269.304688 27.148438 269.304688 L 272.847656 269.304688 C 287.78125 269.304688 299.996094 257.085938 299.996094 242.152344 L 299.996094 98.261719 C 299.996094 83.332031 287.78125 71.113281 272.847656 71.113281 L 175.375 71.113281 L 175.375 85.707031 C 175.375 91.265625 170.828125 95.8125 165.269531 95.8125 L 134.726562 95.8125 C 129.164062 95.8125 124.617188 91.265625 124.617188 85.707031 Z M 52.34375 139.039062 C 52.34375 124.511719 64.121094 112.734375 78.648438 112.734375 C 93.175781 112.734375 104.953125 124.511719 104.953125 139.039062 C 104.953125 153.566406 93.175781 165.339844 78.648438 165.339844 C 64.121094 165.339844 52.34375 153.566406 52.34375 139.039062 Z M 102.820312 175.839844 C 116.003906 175.839844 126.785156 186.296875 126.785156 199.082031 L 126.785156 222.324219 L 112.773438 222.324219 L 109.742188 202.703125 L 106.714844 222.324219 L 50.582031 222.324219 L 47.554688 202.703125 L 44.523438 222.324219 L 30.507812 222.324219 L 30.507812 199.082031 C 30.507812 186.296875 41.292969 175.839844 54.476562 175.839844 L 65.496094 175.839844 L 78.671875 196.828125 L 91.824219 175.839844 Z M 158.535156 180.316406 L 269.484375 180.316406 L 269.484375 185.671875 L 158.535156 185.671875 Z M 158.535156 205.886719 L 269.484375 205.886719 L 269.484375 211.242188 L 158.535156 211.242188 Z M 158.535156 154.746094 L 269.484375 154.746094 L 269.484375 160.101562 L 158.535156 160.101562 Z M 158.535156 129.175781 L 269.484375 129.175781 L 269.484375 134.53125 L 158.535156 134.53125 Z M 158.535156 129.175781 " fill-opacity="1" fill-rule="evenodd"/></svg>