<svg xmlns="http://www.w3.org/2000/svg" xmlns:xlink="http://www.w3.org/1999/xlink" width="400" zoomAndPan="magnify" viewBox="0 0 300 299.999988" height="400" preserveAspectRatio="xMidYMid meet" version="1.0"><defs><clipPath id="id1"><path d="M 0.339844 0 L 299.660156 0 L 299.660156 299.851562 L 0.339844 299.851562 Z M 0.339844 0 " clip-rule="nonzero"/></clipPath></defs><g clip-path="url(#id1)"><path fill="#706f6f" d="M 203.332031 203.097656 L 275.34375 203.097656 C 257.328125 245.800781 218.824219 276.359375 173.199219 284.28125 C 187.519531 259.007812 197.671875 231.585938 203.332031 203.097656 Z M 110.566406 203.097656 L 189.433594 203.097656 C 184.359375 227.386719 175.800781 250.796875 164.082031 272.640625 C 159.910156 280.398438 150.210938 283.324219 142.425781 279.152344 C 139.664062 277.664062 137.40625 275.402344 135.917969 272.640625 C 124.199219 250.796875 115.640625 227.386719 110.566406 203.097656 Z M 24.65625 203.097656 L 96.667969 203.097656 C 102.328125 231.585938 112.503906 259.007812 126.800781 284.28125 C 81.148438 276.359375 42.671875 245.800781 24.65625 203.097656 Z M 205.644531 110.890625 L 280.261719 110.890625 C 287.96875 136.53125 287.96875 163.875 280.261719 189.492188 L 205.644531 189.492188 C 209.46875 163.453125 209.46875 136.957031 205.644531 110.890625 Z M 108.121094 110.890625 L 191.90625 110.890625 C 195.917969 136.929688 195.917969 163.453125 191.90625 189.492188 L 108.121094 189.492188 C 104.109375 163.453125 104.109375 136.929688 108.121094 110.890625 Z M 19.765625 110.890625 L 94.355469 110.890625 C 90.53125 136.957031 90.53125 163.453125 94.355469 189.492188 L 19.765625 189.492188 C 12.003906 163.875 12.003906 136.53125 19.765625 110.890625 Z M 149.65625 19.34375 C 155.660156 19.210938 161.214844 22.453125 164.082031 27.769531 C 175.800781 49.585938 184.359375 73.023438 189.433594 97.285156 L 110.566406 97.285156 C 115.640625 73.023438 124.199219 49.585938 135.917969 27.769531 C 138.652344 22.695312 143.886719 19.476562 149.65625 19.34375 Z M 173.199219 16.128906 C 218.824219 24.023438 257.328125 54.609375 275.34375 97.285156 L 203.332031 97.285156 C 197.671875 68.796875 187.519531 41.402344 173.199219 16.128906 Z M 126.800781 16.128906 C 112.503906 41.402344 102.328125 68.796875 96.667969 97.285156 L 24.65625 97.285156 C 42.671875 54.609375 81.148438 24.023438 126.800781 16.128906 Z M 146.121094 0.078125 C 64.804688 2.179688 0.0742188 68.851562 0.339844 150.191406 C 0.339844 232.859375 67.359375 299.851562 150 299.851562 C 232.667969 299.851562 299.660156 232.859375 299.660156 150.191406 C 299.953125 67.550781 233.175781 0.320312 150.503906 0.0273438 C 149.042969 0.0273438 147.609375 0.0546875 146.121094 0.078125 " fill-opacity="1" fill-rule="nonzero"/></g></svg>