<svg xmlns="http://www.w3.org/2000/svg" xmlns:xlink="http://www.w3.org/1999/xlink" width="400" zoomAndPan="magnify" viewBox="0 0 300 299.999988" height="400" preserveAspectRatio="xMidYMid meet" version="1.0"><path fill="#000000" d="M 287.84375 272.535156 L 12.15625 272.535156 C 11.457031 272.535156 10.769531 272.464844 10.085938 272.328125 C 9.402344 272.195312 8.742188 271.992188 8.097656 271.726562 C 7.453125 271.460938 6.84375 271.132812 6.265625 270.746094 C 5.683594 270.359375 5.148438 269.921875 4.65625 269.429688 C 4.164062 268.9375 3.726562 268.398438 3.339844 267.820312 C 2.953125 267.242188 2.625 266.632812 2.359375 265.988281 C 2.09375 265.34375 1.890625 264.683594 1.753906 264 C 1.621094 263.316406 1.550781 262.625 1.550781 261.929688 L 1.550781 200.652344 C 1.550781 199.957031 1.621094 199.265625 1.753906 198.585938 C 1.890625 197.902344 2.09375 197.238281 2.359375 196.59375 C 2.625 195.953125 2.953125 195.339844 3.339844 194.761719 C 3.726562 194.183594 4.164062 193.648438 4.65625 193.15625 C 5.148438 192.664062 5.683594 192.222656 6.265625 191.835938 C 6.84375 191.449219 7.453125 191.121094 8.097656 190.855469 C 8.742188 190.589844 9.402344 190.390625 10.085938 190.253906 C 10.769531 190.117188 11.457031 190.050781 12.15625 190.050781 C 12.851562 190.050781 13.539062 190.117188 14.222656 190.253906 C 14.90625 190.390625 15.570312 190.589844 16.214844 190.855469 C 16.855469 191.121094 17.46875 191.449219 18.046875 191.835938 C 18.625 192.222656 19.160156 192.664062 19.652344 193.15625 C 20.144531 193.648438 20.585938 194.183594 20.972656 194.761719 C 21.359375 195.339844 21.683594 195.953125 21.953125 196.59375 C 22.21875 197.238281 22.417969 197.902344 22.554688 198.585938 C 22.691406 199.265625 22.757812 199.957031 22.757812 200.652344 L 22.757812 251.328125 L 277.242188 251.328125 L 277.242188 200.652344 C 277.242188 199.957031 277.308594 199.265625 277.445312 198.585938 C 277.582031 197.902344 277.78125 197.238281 278.046875 196.59375 C 278.316406 195.953125 278.640625 195.339844 279.027344 194.761719 C 279.414062 194.183594 279.855469 193.648438 280.347656 193.15625 C 280.839844 192.664062 281.375 192.222656 281.953125 191.835938 C 282.53125 191.449219 283.144531 191.121094 283.785156 190.855469 C 284.429688 190.589844 285.09375 190.390625 285.777344 190.253906 C 286.460938 190.117188 287.148438 190.050781 287.84375 190.050781 C 288.542969 190.050781 289.230469 190.117188 289.914062 190.253906 C 290.597656 190.390625 291.257812 190.589844 291.902344 190.855469 C 292.546875 191.121094 293.15625 191.449219 293.734375 191.835938 C 294.316406 192.222656 294.851562 192.664062 295.34375 193.15625 C 295.835938 193.648438 296.273438 194.183594 296.660156 194.761719 C 297.046875 195.339844 297.375 195.953125 297.640625 196.59375 C 297.90625 197.238281 298.109375 197.902344 298.246094 198.585938 C 298.378906 199.265625 298.449219 199.957031 298.449219 200.652344 L 298.449219 261.929688 C 298.449219 262.625 298.378906 263.316406 298.246094 264 C 298.109375 264.683594 297.90625 265.34375 297.640625 265.988281 C 297.375 266.632812 297.046875 267.242188 296.660156 267.820312 C 296.273438 268.398438 295.835938 268.9375 295.34375 269.429688 C 294.851562 269.921875 294.316406 270.359375 293.734375 270.746094 C 293.15625 271.132812 292.546875 271.460938 291.902344 271.726562 C 291.257812 271.992188 290.597656 272.195312 289.914062 272.328125 C 289.230469 272.464844 288.542969 272.535156 287.84375 272.535156 Z M 287.84375 272.535156 " fill-opacity="1" fill-rule="nonzero"/><path fill="#000000" d="M 211.265625 109.949219 C 209.859375 109.949219 208.507812 109.679688 207.210938 109.144531 C 205.910156 108.605469 204.765625 107.839844 203.769531 106.84375 L 150 53.0625 L 96.230469 106.84375 C 95.734375 107.324219 95.199219 107.75 94.621094 108.121094 C 94.042969 108.496094 93.433594 108.808594 92.792969 109.066406 C 92.152344 109.320312 91.496094 109.511719 90.820312 109.640625 C 90.140625 109.765625 89.460938 109.828125 88.769531 109.820312 C 88.082031 109.8125 87.402344 109.742188 86.726562 109.601562 C 86.054688 109.464844 85.398438 109.261719 84.761719 108.996094 C 84.128906 108.730469 83.523438 108.40625 82.953125 108.019531 C 82.382812 107.636719 81.851562 107.203125 81.367188 106.714844 C 80.878906 106.226562 80.445312 105.699219 80.058594 105.128906 C 79.675781 104.554688 79.351562 103.953125 79.085938 103.316406 C 78.820312 102.683594 78.617188 102.027344 78.476562 101.355469 C 78.339844 100.679688 78.265625 99.996094 78.261719 99.308594 C 78.253906 98.621094 78.316406 97.9375 78.441406 97.261719 C 78.570312 96.585938 78.761719 95.925781 79.015625 95.289062 C 79.269531 94.648438 79.585938 94.039062 79.957031 93.460938 C 80.332031 92.882812 80.757812 92.347656 81.238281 91.851562 L 142.503906 30.574219 C 143.003906 30.097656 143.546875 29.675781 144.128906 29.304688 C 144.710938 28.933594 145.324219 28.617188 145.964844 28.363281 C 146.609375 28.109375 147.269531 27.914062 147.945312 27.785156 C 148.625 27.65625 149.308594 27.589844 150 27.589844 C 150.691406 27.589844 151.375 27.65625 152.054688 27.785156 C 152.730469 27.914062 153.390625 28.109375 154.035156 28.363281 C 154.675781 28.617188 155.289062 28.933594 155.871094 29.304688 C 156.453125 29.675781 156.996094 30.097656 157.496094 30.574219 L 218.761719 91.851562 C 219.503906 92.59375 220.121094 93.425781 220.617188 94.351562 C 221.109375 95.273438 221.460938 96.25 221.664062 97.28125 C 221.867188 98.308594 221.917969 99.34375 221.816406 100.386719 C 221.714844 101.429688 221.460938 102.4375 221.0625 103.40625 C 220.660156 104.375 220.125 105.261719 219.460938 106.074219 C 218.796875 106.886719 218.027344 107.582031 217.15625 108.164062 C 216.285156 108.746094 215.347656 109.191406 214.34375 109.496094 C 213.339844 109.796875 212.316406 109.949219 211.265625 109.949219 Z M 211.265625 109.949219 " fill-opacity="1" fill-rule="nonzero"/><path fill="#000000" d="M 150 217.152344 C 149.304688 217.152344 148.613281 217.082031 147.929688 216.949219 C 147.25 216.8125 146.585938 216.609375 145.941406 216.34375 C 145.300781 216.078125 144.6875 215.75 144.109375 215.363281 C 143.53125 214.976562 142.996094 214.539062 142.503906 214.046875 C 142.011719 213.554688 141.570312 213.019531 141.183594 212.4375 C 140.796875 211.859375 140.46875 211.25 140.203125 210.605469 C 139.9375 209.964844 139.734375 209.300781 139.601562 208.617188 C 139.464844 207.933594 139.398438 207.246094 139.398438 206.546875 L 139.398438 38.070312 C 139.398438 37.375 139.464844 36.683594 139.601562 36 C 139.734375 35.320312 139.9375 34.65625 140.203125 34.011719 C 140.46875 33.371094 140.796875 32.757812 141.183594 32.179688 C 141.570312 31.601562 142.011719 31.066406 142.503906 30.574219 C 142.996094 30.082031 143.53125 29.640625 144.109375 29.253906 C 144.6875 28.867188 145.300781 28.539062 145.941406 28.273438 C 146.585938 28.007812 147.25 27.804688 147.929688 27.671875 C 148.613281 27.535156 149.304688 27.464844 150 27.464844 C 150.695312 27.464844 151.386719 27.535156 152.070312 27.671875 C 152.75 27.804688 153.414062 28.007812 154.058594 28.273438 C 154.699219 28.539062 155.3125 28.867188 155.890625 29.253906 C 156.46875 29.640625 157.003906 30.082031 157.496094 30.574219 C 157.988281 31.066406 158.429688 31.601562 158.816406 32.179688 C 159.203125 32.757812 159.53125 33.371094 159.796875 34.011719 C 160.0625 34.65625 160.265625 35.320312 160.398438 36 C 160.535156 36.683594 160.601562 37.375 160.601562 38.070312 L 160.601562 206.546875 C 160.601562 207.246094 160.535156 207.933594 160.398438 208.617188 C 160.265625 209.300781 160.0625 209.964844 159.796875 210.605469 C 159.53125 211.25 159.203125 211.859375 158.816406 212.4375 C 158.429688 213.019531 157.988281 213.554688 157.496094 214.046875 C 157.003906 214.539062 156.46875 214.976562 155.890625 215.363281 C 155.3125 215.75 154.699219 216.078125 154.058594 216.34375 C 153.414062 216.609375 152.75 216.8125 152.070312 216.949219 C 151.386719 217.082031 150.695312 217.152344 150 217.152344 Z M 150 217.152344 " fill-opacity="1" fill-rule="nonzero"/></svg>