<svg xmlns="http://www.w3.org/2000/svg" xmlns:xlink="http://www.w3.org/1999/xlink" width="400" zoomAndPan="magnify" viewBox="0 0 300 299.999988" height="400" preserveAspectRatio="xMidYMid meet" version="1.0"><path fill="#000000" d="M 120.628906 234.035156 C 118.34375 234.035156 116.0625 233.964844 113.78125 233.824219 C 111.5 233.683594 109.226562 233.472656 106.957031 233.195312 C 104.6875 232.914062 102.429688 232.566406 100.183594 232.148438 C 97.9375 231.730469 95.707031 231.242188 93.488281 230.6875 C 91.273438 230.132812 89.074219 229.511719 86.894531 228.820312 C 84.714844 228.128906 82.5625 227.375 80.429688 226.550781 C 78.296875 225.730469 76.191406 224.839844 74.113281 223.890625 C 72.035156 222.9375 69.988281 221.921875 67.972656 220.847656 C 65.957031 219.769531 63.976562 218.632812 62.03125 217.433594 C 60.085938 216.234375 58.179688 214.976562 56.308594 213.660156 C 54.441406 212.34375 52.613281 210.972656 50.832031 209.542969 C 49.046875 208.117188 47.308594 206.632812 45.613281 205.101562 C 43.921875 203.566406 42.277344 201.980469 40.679688 200.34375 C 39.082031 198.707031 37.539062 197.023438 36.046875 195.292969 C 34.554688 193.5625 33.113281 191.789062 31.730469 189.972656 C 30.347656 188.152344 29.019531 186.292969 27.75 184.390625 C 26.480469 182.492188 25.269531 180.554688 24.121094 178.578125 C 22.96875 176.605469 21.878906 174.597656 20.851562 172.554688 C 19.824219 170.515625 18.859375 168.445312 17.960938 166.34375 C 17.058594 164.242188 16.226562 162.117188 15.457031 159.964844 C 14.683594 157.8125 13.980469 155.640625 13.34375 153.445312 C 12.710938 151.25 12.140625 149.035156 11.640625 146.808594 C 11.140625 144.578125 10.707031 142.335938 10.34375 140.078125 C 9.980469 137.820312 9.6875 135.554688 9.464844 133.28125 C 9.238281 131.007812 9.085938 128.726562 9 126.445312 C 8.917969 124.160156 8.902344 121.875 8.960938 119.589844 C 9.015625 117.304688 9.140625 115.027344 9.339844 112.75 C 9.535156 110.472656 9.800781 108.203125 10.136719 105.941406 C 10.472656 103.679688 10.875 101.433594 11.347656 99.195312 C 11.820312 96.960938 12.363281 94.742188 12.972656 92.539062 C 13.582031 90.335938 14.257812 88.15625 15.003906 85.992188 C 15.746094 83.832031 16.554688 81.695312 17.429688 79.585938 C 18.304688 77.472656 19.242188 75.390625 20.246094 73.335938 C 21.25 71.285156 22.3125 69.261719 23.441406 67.273438 C 24.566406 65.285156 25.753906 63.332031 27 61.417969 C 28.246094 59.503906 29.550781 57.625 30.910156 55.792969 C 32.273438 53.957031 33.691406 52.164062 35.160156 50.414062 C 36.632812 48.667969 38.15625 46.964844 39.730469 45.308594 C 41.308594 43.652344 42.933594 42.050781 44.609375 40.492188 C 46.28125 38.9375 48.003906 37.4375 49.769531 35.984375 C 51.535156 34.535156 53.347656 33.140625 55.199219 31.804688 C 57.050781 30.464844 58.941406 29.183594 60.875 27.960938 C 62.804688 26.738281 64.769531 25.578125 66.773438 24.476562 C 68.777344 23.375 70.808594 22.332031 72.875 21.355469 C 74.941406 20.378906 77.035156 19.46875 79.15625 18.617188 C 81.28125 17.769531 83.425781 16.988281 85.597656 16.269531 C 87.765625 15.554688 89.957031 14.90625 92.167969 14.324219 C 94.375 13.742188 96.601562 13.226562 98.84375 12.78125 C 101.085938 12.335938 103.339844 11.957031 105.601562 11.652344 C 107.867188 11.34375 110.140625 11.105469 112.417969 10.9375 C 114.699219 10.769531 116.980469 10.671875 119.265625 10.644531 C 121.550781 10.617188 123.835938 10.660156 126.117188 10.773438 C 128.402344 10.882812 130.675781 11.066406 132.949219 11.320312 C 135.21875 11.570312 137.480469 11.890625 139.734375 12.285156 C 141.984375 12.675781 144.222656 13.132812 146.445312 13.664062 C 148.671875 14.191406 150.875 14.785156 153.0625 15.449219 C 155.25 16.113281 157.414062 16.84375 159.554688 17.640625 C 161.699219 18.4375 163.8125 19.296875 165.902344 20.226562 C 167.992188 21.152344 170.050781 22.140625 172.078125 23.195312 C 174.109375 24.246094 176.101562 25.359375 178.0625 26.535156 C 180.023438 27.710938 181.945312 28.945312 183.828125 30.238281 C 185.714844 31.53125 187.554688 32.882812 189.359375 34.289062 C 191.160156 35.695312 192.914062 37.152344 194.628906 38.667969 C 196.339844 40.183594 198.003906 41.746094 199.621094 43.363281 C 201.558594 45.304688 203.421875 47.3125 205.214844 49.386719 C 207.003906 51.464844 208.71875 53.605469 210.351562 55.808594 C 211.984375 58.011719 213.535156 60.273438 215 62.589844 C 216.46875 64.90625 217.847656 67.273438 219.140625 69.691406 C 220.433594 72.113281 221.636719 74.574219 222.746094 77.082031 C 223.855469 79.589844 224.875 82.132812 225.796875 84.714844 C 226.722656 87.300781 227.550781 89.910156 228.28125 92.554688 C 229.011719 95.199219 229.644531 97.863281 230.179688 100.554688 C 230.714844 103.246094 231.148438 105.949219 231.484375 108.671875 C 231.820312 111.394531 232.054688 114.125 232.191406 116.863281 C 232.324219 119.601562 232.355469 122.34375 232.289062 125.085938 C 232.222656 127.828125 232.054688 130.5625 231.785156 133.292969 C 231.515625 136.019531 231.148438 138.738281 230.679688 141.4375 C 230.207031 144.140625 229.640625 146.820312 228.976562 149.480469 C 228.308594 152.144531 227.542969 154.773438 226.683594 157.378906 C 225.824219 159.984375 224.867188 162.550781 223.820312 165.085938 C 222.769531 167.621094 221.628906 170.109375 220.394531 172.5625 C 219.160156 175.011719 217.839844 177.410156 216.429688 179.765625 C 215.019531 182.117188 213.523438 184.414062 211.945312 186.65625 C 210.367188 188.898438 208.707031 191.078125 206.964844 193.199219 C 205.226562 195.320312 203.410156 197.371094 201.519531 199.359375 C 199.628906 201.34375 197.667969 203.257812 195.632812 205.101562 C 193.601562 206.941406 191.503906 208.707031 189.34375 210.394531 C 187.179688 212.082031 184.960938 213.6875 182.679688 215.210938 C 180.398438 216.734375 178.066406 218.171875 175.679688 219.523438 C 173.292969 220.875 170.859375 222.136719 168.382812 223.3125 C 165.902344 224.484375 163.382812 225.5625 160.824219 226.550781 C 158.265625 227.539062 155.675781 228.429688 153.050781 229.226562 C 150.425781 230.019531 147.777344 230.71875 145.101562 231.320312 C 142.425781 231.921875 139.730469 232.421875 137.019531 232.824219 C 134.304688 233.226562 131.582031 233.53125 128.847656 233.730469 C 126.113281 233.933594 123.371094 234.035156 120.628906 234.035156 Z M 120.628906 44.828125 C 119.148438 44.832031 117.667969 44.878906 116.191406 44.964844 C 114.710938 45.054688 113.234375 45.183594 111.765625 45.355469 C 110.292969 45.527344 108.828125 45.742188 107.367188 46 C 105.910156 46.257812 104.460938 46.554688 103.015625 46.894531 C 101.574219 47.234375 100.144531 47.613281 98.722656 48.035156 C 97.304688 48.457031 95.898438 48.917969 94.503906 49.417969 C 93.109375 49.921875 91.730469 50.460938 90.367188 51.042969 C 89.003906 51.625 87.660156 52.242188 86.332031 52.902344 C 85.003906 53.558594 83.699219 54.253906 82.410156 54.988281 C 81.121094 55.722656 79.855469 56.488281 78.613281 57.296875 C 77.371094 58.101562 76.152344 58.941406 74.957031 59.816406 C 73.761719 60.691406 72.589844 61.601562 71.449219 62.542969 C 70.304688 63.484375 69.1875 64.457031 68.101562 65.464844 C 67.015625 66.46875 65.957031 67.507812 64.929688 68.574219 C 63.898438 69.640625 62.902344 70.734375 61.9375 71.859375 C 60.972656 72.984375 60.039062 74.132812 59.140625 75.308594 C 58.242188 76.488281 57.375 77.6875 56.546875 78.914062 C 55.714844 80.140625 54.921875 81.390625 54.160156 82.664062 C 53.402344 83.9375 52.679688 85.230469 51.996094 86.542969 C 51.308594 87.855469 50.664062 89.1875 50.054688 90.539062 C 49.445312 91.890625 48.875 93.257812 48.34375 94.640625 C 47.816406 96.023438 47.324219 97.421875 46.875 98.832031 C 46.425781 100.242188 46.015625 101.667969 45.644531 103.101562 C 45.277344 104.535156 44.949219 105.980469 44.664062 107.433594 C 44.375 108.886719 44.132812 110.347656 43.929688 111.816406 C 43.726562 113.28125 43.566406 114.753906 43.449219 116.230469 C 43.332031 117.707031 43.253906 119.1875 43.222656 120.667969 C 43.1875 122.148438 43.195312 123.628906 43.25 125.109375 C 43.300781 126.589844 43.394531 128.070312 43.53125 129.542969 C 43.664062 131.019531 43.84375 132.488281 44.0625 133.953125 C 44.285156 135.417969 44.546875 136.878906 44.851562 138.328125 C 45.152344 139.777344 45.5 141.21875 45.882812 142.648438 C 46.269531 144.078125 46.699219 145.496094 47.164062 146.902344 C 47.632812 148.308594 48.140625 149.699219 48.6875 151.074219 C 49.234375 152.453125 49.820312 153.8125 50.445312 155.15625 C 51.070312 156.5 51.734375 157.824219 52.433594 159.128906 C 53.132812 160.433594 53.871094 161.71875 54.648438 162.980469 C 55.421875 164.242188 56.230469 165.484375 57.078125 166.699219 C 57.921875 167.914062 58.800781 169.105469 59.714844 170.273438 C 60.628906 171.4375 61.574219 172.578125 62.554688 173.691406 C 63.53125 174.800781 64.542969 175.886719 65.582031 176.9375 C 66.625 177.992188 67.695312 179.015625 68.792969 180.011719 C 69.894531 181.003906 71.019531 181.964844 72.175781 182.890625 C 73.332031 183.820312 74.511719 184.714844 75.714844 185.574219 C 76.921875 186.433594 78.152344 187.261719 79.40625 188.050781 C 80.65625 188.839844 81.933594 189.59375 83.226562 190.3125 C 84.523438 191.03125 85.839844 191.710938 87.175781 192.351562 C 88.511719 192.992188 89.863281 193.597656 91.234375 194.160156 C 92.601562 194.722656 93.988281 195.25 95.386719 195.734375 C 96.789062 196.21875 98.199219 196.664062 99.625 197.066406 C 101.050781 197.472656 102.484375 197.835938 103.933594 198.15625 C 105.378906 198.480469 106.832031 198.757812 108.292969 199 C 109.757812 199.238281 111.222656 199.433594 112.699219 199.589844 C 114.171875 199.742188 115.648438 199.855469 117.128906 199.925781 C 118.605469 199.996094 120.085938 200.023438 121.570312 200.007812 C 123.050781 199.992188 124.53125 199.933594 126.007812 199.835938 C 127.484375 199.738281 128.960938 199.59375 130.429688 199.410156 C 131.898438 199.226562 133.363281 199 134.820312 198.734375 C 136.277344 198.464844 137.726562 198.15625 139.164062 197.804688 C 140.605469 197.453125 142.03125 197.0625 143.449219 196.628906 C 144.867188 196.195312 146.269531 195.722656 147.660156 195.210938 C 149.050781 194.699219 150.421875 194.144531 151.78125 193.554688 C 153.140625 192.960938 154.480469 192.332031 155.800781 191.664062 C 157.125 190.996094 158.425781 190.289062 159.707031 189.546875 C 160.988281 188.804688 162.25 188.023438 163.484375 187.210938 C 164.722656 186.394531 165.933594 185.542969 167.125 184.660156 C 168.3125 183.777344 169.472656 182.859375 170.609375 181.90625 C 171.746094 180.957031 172.851562 179.972656 173.933594 178.957031 C 175.011719 177.941406 176.0625 176.898438 177.082031 175.824219 C 178.101562 174.75 179.089844 173.644531 180.046875 172.515625 C 181.003906 171.382812 181.925781 170.226562 182.816406 169.042969 C 183.707031 167.855469 184.5625 166.648438 185.382812 165.414062 C 186.203125 164.183594 186.988281 162.925781 187.738281 161.648438 C 188.484375 160.371094 189.199219 159.070312 189.871094 157.753906 C 190.546875 156.433594 191.183594 155.097656 191.78125 153.742188 C 192.378906 152.386719 192.9375 151.015625 193.457031 149.625 C 193.976562 148.238281 194.457031 146.839844 194.894531 145.421875 C 195.335938 144.007812 195.734375 142.582031 196.089844 141.144531 C 196.449219 139.707031 196.765625 138.261719 197.039062 136.804688 C 197.3125 135.347656 197.546875 133.886719 197.738281 132.417969 C 197.925781 130.949219 198.078125 129.472656 198.183594 127.996094 C 198.289062 126.519531 198.351562 125.039062 198.375 123.558594 C 198.398438 122.078125 198.375 120.597656 198.3125 119.117188 C 198.25 117.636719 198.144531 116.160156 197.996094 114.683594 C 197.847656 113.210938 197.660156 111.742188 197.425781 110.277344 C 197.195312 108.816406 196.921875 107.359375 196.605469 105.914062 C 196.292969 104.464844 195.9375 103.027344 195.539062 101.601562 C 195.140625 100.175781 194.703125 98.757812 194.222656 97.355469 C 193.746094 95.957031 193.226562 94.566406 192.667969 93.195312 C 192.109375 91.824219 191.515625 90.46875 190.878906 89.128906 C 190.242188 87.792969 189.570312 86.472656 188.859375 85.171875 C 188.148438 83.875 187.398438 82.59375 186.617188 81.339844 C 185.832031 80.082031 185.011719 78.847656 184.15625 77.640625 C 183.300781 76.429688 182.414062 75.246094 181.488281 74.085938 C 180.566406 72.925781 179.609375 71.796875 178.625 70.691406 C 177.636719 69.585938 176.617188 68.511719 175.566406 67.464844 C 173.773438 65.664062 171.894531 63.953125 169.929688 62.335938 C 167.964844 60.714844 165.921875 59.199219 163.808594 57.785156 C 161.695312 56.367188 159.515625 55.058594 157.269531 53.859375 C 155.027344 52.660156 152.726562 51.574219 150.375 50.601562 C 148.023438 49.628906 145.628906 48.773438 143.195312 48.039062 C 140.757812 47.300781 138.289062 46.6875 135.792969 46.195312 C 133.296875 45.707031 130.78125 45.339844 128.25 45.097656 C 125.714844 44.851562 123.175781 44.734375 120.628906 44.746094 Z M 120.628906 44.828125 " fill-opacity="1" fill-rule="nonzero"/><path fill="#000000" d="M 281.25 300 C 278.988281 300 276.816406 299.566406 274.726562 298.703125 C 272.640625 297.835938 270.796875 296.605469 269.199219 295.007812 L 175.449219 201.257812 C 174.722656 200.449219 174.082031 199.582031 173.523438 198.652344 C 172.964844 197.726562 172.496094 196.753906 172.121094 195.734375 C 171.75 194.71875 171.476562 193.671875 171.300781 192.605469 C 171.125 191.535156 171.054688 190.457031 171.085938 189.375 C 171.113281 188.289062 171.25 187.21875 171.484375 186.160156 C 171.71875 185.101562 172.050781 184.074219 172.484375 183.082031 C 172.914062 182.085938 173.433594 181.140625 174.046875 180.246094 C 174.65625 179.351562 175.347656 178.523438 176.117188 177.757812 C 176.886719 176.996094 177.722656 176.3125 178.621094 175.707031 C 179.519531 175.101562 180.46875 174.589844 181.46875 174.164062 C 182.464844 173.742188 183.496094 173.417969 184.554688 173.191406 C 185.617188 172.964844 186.6875 172.839844 187.769531 172.816406 C 188.855469 172.792969 189.929688 172.875 191 173.058594 C 192.066406 173.238281 193.109375 173.523438 194.125 173.902344 C 195.140625 174.285156 196.109375 174.757812 197.03125 175.328125 C 197.957031 175.894531 198.820312 176.542969 199.621094 177.273438 L 293.371094 271.023438 C 293.953125 271.617188 294.488281 272.253906 294.980469 272.925781 C 295.46875 273.601562 295.910156 274.308594 296.296875 275.046875 C 296.683594 275.785156 297.011719 276.546875 297.289062 277.332031 C 297.5625 278.121094 297.777344 278.921875 297.9375 279.742188 C 298.09375 280.558594 298.191406 281.386719 298.226562 282.21875 C 298.261719 283.050781 298.238281 283.882812 298.152344 284.710938 C 298.066406 285.539062 297.917969 286.359375 297.714844 287.167969 C 297.507812 287.972656 297.242188 288.761719 296.921875 289.53125 C 296.601562 290.300781 296.222656 291.042969 295.792969 291.757812 C 295.363281 292.46875 294.882812 293.148438 294.351562 293.792969 C 293.824219 294.433594 293.25 295.035156 292.632812 295.597656 C 292.011719 296.15625 291.359375 296.664062 290.664062 297.128906 C 289.972656 297.59375 289.246094 298 288.496094 298.359375 C 287.742188 298.714844 286.964844 299.015625 286.167969 299.257812 C 285.371094 299.503906 284.5625 299.6875 283.738281 299.808594 C 282.914062 299.933594 282.082031 299.996094 281.25 300 Z M 281.25 300 " fill-opacity="1" fill-rule="nonzero"/><path fill="#000000" d="M 158.523438 139.398438 L 82.773438 139.398438 C 82.214844 139.398438 81.65625 139.371094 81.101562 139.316406 C 80.546875 139.261719 79.996094 139.179688 79.449219 139.070312 C 78.898438 138.960938 78.359375 138.824219 77.824219 138.664062 C 77.289062 138.5 76.765625 138.3125 76.25 138.101562 C 75.734375 137.886719 75.230469 137.648438 74.738281 137.386719 C 74.246094 137.121094 73.765625 136.835938 73.304688 136.523438 C 72.839844 136.214844 72.390625 135.882812 71.960938 135.527344 C 71.527344 135.175781 71.113281 134.800781 70.71875 134.40625 C 70.324219 134.011719 69.949219 133.597656 69.597656 133.167969 C 69.242188 132.734375 68.910156 132.285156 68.601562 131.824219 C 68.289062 131.359375 68.003906 130.878906 67.738281 130.386719 C 67.476562 129.894531 67.238281 129.390625 67.023438 128.875 C 66.8125 128.359375 66.625 127.835938 66.460938 127.300781 C 66.300781 126.765625 66.164062 126.226562 66.054688 125.679688 C 65.945312 125.128906 65.863281 124.578125 65.808594 124.023438 C 65.753906 123.46875 65.726562 122.910156 65.726562 122.351562 C 65.726562 121.792969 65.753906 121.238281 65.808594 120.683594 C 65.863281 120.125 65.945312 119.574219 66.054688 119.027344 C 66.164062 118.480469 66.300781 117.9375 66.460938 117.40625 C 66.625 116.871094 66.8125 116.34375 67.023438 115.828125 C 67.238281 115.3125 67.476562 114.808594 67.738281 114.316406 C 68.003906 113.824219 68.289062 113.347656 68.601562 112.882812 C 68.910156 112.417969 69.242188 111.96875 69.597656 111.539062 C 69.949219 111.109375 70.324219 110.695312 70.71875 110.300781 C 71.113281 109.90625 71.527344 109.53125 71.960938 109.175781 C 72.390625 108.820312 72.839844 108.488281 73.304688 108.179688 C 73.765625 107.871094 74.246094 107.582031 74.738281 107.320312 C 75.230469 107.054688 75.734375 106.816406 76.25 106.605469 C 76.765625 106.390625 77.289062 106.203125 77.824219 106.039062 C 78.359375 105.878906 78.898438 105.742188 79.449219 105.632812 C 79.996094 105.527344 80.546875 105.445312 81.101562 105.390625 C 81.65625 105.335938 82.214844 105.308594 82.773438 105.308594 L 158.523438 105.308594 C 159.082031 105.308594 159.636719 105.335938 160.195312 105.390625 C 160.75 105.445312 161.300781 105.527344 161.847656 105.632812 C 162.394531 105.742188 162.9375 105.878906 163.472656 106.039062 C 164.003906 106.203125 164.53125 106.390625 165.046875 106.605469 C 165.5625 106.816406 166.066406 107.054688 166.558594 107.320312 C 167.050781 107.582031 167.527344 107.871094 167.992188 108.179688 C 168.457031 108.488281 168.90625 108.820312 169.335938 109.175781 C 169.769531 109.53125 170.179688 109.90625 170.574219 110.300781 C 170.96875 110.695312 171.34375 111.109375 171.699219 111.539062 C 172.054688 111.96875 172.386719 112.417969 172.695312 112.882812 C 173.003906 113.347656 173.292969 113.824219 173.554688 114.316406 C 173.820312 114.808594 174.058594 115.3125 174.269531 115.828125 C 174.484375 116.34375 174.671875 116.871094 174.835938 117.40625 C 174.996094 117.9375 175.132812 118.480469 175.242188 119.027344 C 175.347656 119.574219 175.429688 120.125 175.484375 120.683594 C 175.539062 121.238281 175.566406 121.792969 175.566406 122.351562 C 175.566406 122.910156 175.539062 123.46875 175.484375 124.023438 C 175.429688 124.578125 175.347656 125.128906 175.242188 125.679688 C 175.132812 126.226562 174.996094 126.765625 174.835938 127.300781 C 174.671875 127.835938 174.484375 128.359375 174.269531 128.875 C 174.058594 129.390625 173.820312 129.894531 173.554688 130.386719 C 173.292969 130.878906 173.003906 131.359375 172.695312 131.824219 C 172.386719 132.285156 172.054688 132.734375 171.699219 133.167969 C 171.34375 133.597656 170.96875 134.011719 170.574219 134.40625 C 170.179688 134.800781 169.769531 135.175781 169.335938 135.527344 C 168.90625 135.882812 168.457031 136.214844 167.992188 136.523438 C 167.527344 136.835938 167.050781 137.121094 166.558594 137.386719 C 166.066406 137.648438 165.5625 137.886719 165.046875 138.101562 C 164.53125 138.3125 164.003906 138.5 163.472656 138.664062 C 162.9375 138.824219 162.394531 138.960938 161.847656 139.070312 C 161.300781 139.179688 160.75 139.261719 160.195312 139.316406 C 159.636719 139.371094 159.082031 139.398438 158.523438 139.398438 Z M 158.523438 139.398438 " fill-opacity="1" fill-rule="nonzero"/><path fill="#000000" d="M 120.628906 177.273438 C 120.074219 177.273438 119.515625 177.246094 118.960938 177.191406 C 118.40625 177.136719 117.851562 177.054688 117.304688 176.945312 C 116.757812 176.835938 116.21875 176.699219 115.683594 176.539062 C 115.148438 176.375 114.625 176.1875 114.109375 175.976562 C 113.59375 175.761719 113.085938 175.523438 112.59375 175.261719 C 112.101562 174.996094 111.625 174.710938 111.160156 174.398438 C 110.695312 174.089844 110.25 173.757812 109.816406 173.402344 C 109.386719 173.050781 108.972656 172.675781 108.578125 172.28125 C 108.183594 171.886719 107.808594 171.472656 107.453125 171.042969 C 107.101562 170.609375 106.769531 170.160156 106.457031 169.699219 C 106.148438 169.234375 105.859375 168.753906 105.597656 168.261719 C 105.335938 167.769531 105.097656 167.265625 104.882812 166.75 C 104.667969 166.234375 104.480469 165.710938 104.320312 165.175781 C 104.15625 164.640625 104.023438 164.101562 103.914062 163.554688 C 103.804688 163.003906 103.722656 162.453125 103.667969 161.898438 C 103.613281 161.34375 103.585938 160.785156 103.585938 160.226562 L 103.585938 84.476562 C 103.585938 83.917969 103.613281 83.363281 103.667969 82.808594 C 103.722656 82.25 103.804688 81.699219 103.914062 81.152344 C 104.023438 80.605469 104.15625 80.0625 104.320312 79.53125 C 104.480469 78.996094 104.667969 78.46875 104.882812 77.953125 C 105.097656 77.4375 105.335938 76.933594 105.597656 76.441406 C 105.859375 75.949219 106.148438 75.472656 106.457031 75.007812 C 106.769531 74.542969 107.101562 74.09375 107.453125 73.664062 C 107.808594 73.234375 108.183594 72.820312 108.578125 72.425781 C 108.972656 72.03125 109.386719 71.65625 109.816406 71.300781 C 110.25 70.945312 110.695312 70.613281 111.160156 70.304688 C 111.625 69.996094 112.101562 69.707031 112.59375 69.445312 C 113.085938 69.179688 113.59375 68.941406 114.109375 68.730469 C 114.625 68.515625 115.148438 68.328125 115.683594 68.167969 C 116.21875 68.003906 116.757812 67.867188 117.304688 67.757812 C 117.851562 67.652344 118.40625 67.570312 118.960938 67.515625 C 119.515625 67.460938 120.074219 67.433594 120.628906 67.433594 C 121.1875 67.433594 121.746094 67.460938 122.300781 67.515625 C 122.855469 67.570312 123.410156 67.652344 123.957031 67.757812 C 124.503906 67.867188 125.042969 68.003906 125.578125 68.164062 C 126.113281 68.328125 126.636719 68.515625 127.152344 68.730469 C 127.667969 68.941406 128.171875 69.179688 128.664062 69.445312 C 129.15625 69.707031 129.636719 69.996094 130.101562 70.304688 C 130.566406 70.613281 131.011719 70.945312 131.445312 71.300781 C 131.875 71.65625 132.289062 72.03125 132.683594 72.425781 C 133.078125 72.820312 133.453125 73.234375 133.808594 73.664062 C 134.160156 74.09375 134.492188 74.542969 134.804688 75.007812 C 135.113281 75.472656 135.398438 75.949219 135.664062 76.441406 C 135.925781 76.933594 136.164062 77.4375 136.378906 77.953125 C 136.59375 78.46875 136.78125 78.996094 136.941406 79.53125 C 137.105469 80.0625 137.238281 80.605469 137.347656 81.152344 C 137.457031 81.699219 137.539062 82.25 137.59375 82.808594 C 137.648438 83.363281 137.675781 83.917969 137.675781 84.476562 L 137.675781 160.226562 C 137.675781 160.785156 137.648438 161.34375 137.59375 161.898438 C 137.539062 162.453125 137.457031 163.003906 137.347656 163.554688 C 137.238281 164.101562 137.105469 164.640625 136.941406 165.175781 C 136.78125 165.710938 136.59375 166.234375 136.378906 166.75 C 136.164062 167.265625 135.925781 167.769531 135.664062 168.261719 C 135.398438 168.753906 135.113281 169.234375 134.804688 169.699219 C 134.492188 170.160156 134.160156 170.609375 133.808594 171.042969 C 133.453125 171.472656 133.078125 171.886719 132.683594 172.28125 C 132.289062 172.675781 131.875 173.050781 131.445312 173.402344 C 131.011719 173.757812 130.566406 174.089844 130.101562 174.398438 C 129.636719 174.710938 129.15625 174.996094 128.664062 175.261719 C 128.171875 175.523438 127.667969 175.761719 127.152344 175.976562 C 126.636719 176.1875 126.113281 176.375 125.578125 176.539062 C 125.042969 176.699219 124.503906 176.835938 123.957031 176.945312 C 123.410156 177.054688 122.855469 177.136719 122.300781 177.191406 C 121.746094 177.246094 121.1875 177.273438 120.628906 177.273438 Z M 120.628906 177.273438 " fill-opacity="1" fill-rule="nonzero"/></svg>