<svg xmlns="http://www.w3.org/2000/svg" xmlns:xlink="http://www.w3.org/1999/xlink" width="400" zoomAndPan="magnify" viewBox="0 0 300 299.999988" height="400" preserveAspectRatio="xMidYMid meet" version="1.0"><path fill="#231f20" d="M 291.234375 260.761719 L 215.394531 184.921875 C 228.503906 165.902344 236.207031 142.878906 236.207031 118.085938 C 236.207031 52.980469 183.238281 0.0117188 118.132812 0.0117188 C 53.027344 0.0117188 0.0585938 52.980469 0.0585938 118.085938 C 0.0585938 183.1875 53.027344 236.152344 118.132812 236.152344 C 141.859375 236.152344 163.960938 229.097656 182.484375 217 L 258.746094 293.257812 C 263.230469 297.742188 269.109375 299.988281 274.988281 299.988281 C 280.867188 299.988281 286.75 297.742188 291.234375 293.253906 C 300.210938 284.285156 300.210938 269.738281 291.234375 260.761719 Z M 46.011719 118.085938 C 46.011719 78.320312 78.359375 45.964844 118.132812 45.964844 C 157.902344 45.964844 190.257812 78.316406 190.257812 118.085938 C 190.257812 157.847656 157.902344 190.203125 118.132812 190.203125 C 78.359375 190.203125 46.011719 157.847656 46.011719 118.085938 Z M 46.011719 118.085938 " fill-opacity="1" fill-rule="nonzero"/><path fill="#231f20" d="M 148.613281 103.316406 L 87.65625 103.316406 C 79.5 103.316406 72.886719 109.929688 72.886719 118.085938 C 72.886719 126.242188 79.5 132.855469 87.65625 132.855469 L 148.613281 132.855469 C 156.769531 132.855469 163.386719 126.242188 163.386719 118.085938 C 163.386719 109.929688 156.769531 103.316406 148.613281 103.316406 Z M 148.613281 103.316406 " fill-opacity="1" fill-rule="nonzero"/></svg>