<svg xmlns="http://www.w3.org/2000/svg" xmlns:xlink="http://www.w3.org/1999/xlink" width="400" zoomAndPan="magnify" viewBox="0 0 300 299.999988" height="400" preserveAspectRatio="xMidYMid meet" version="1.0"><path fill="#ffbd59" d="M 150 0 C 67.5 0 0 67.5 0 150 C 0 232.5 67.5 300 150 300 C 232.5 300 300 232.5 300 150 C 300 67.5 232.5 0 150 0 Z M 210 165 L 165 165 L 165 210 C 165 219 159 225 150 225 C 141 225 135 219 135 210 L 135 165 L 90 165 C 81 165 75 159 75 150 C 75 141 81 135 90 135 L 135 135 L 135 90 C 135 81 141 75 150 75 C 159 75 165 81 165 90 L 165 135 L 210 135 C 219 135 225 141 225 150 C 225 159 219 165 210 165 Z M 210 165 " fill-opacity="1" fill-rule="nonzero"/></svg>