<svg xmlns="http://www.w3.org/2000/svg" xmlns:xlink="http://www.w3.org/1999/xlink" width="400" zoomAndPan="magnify" viewBox="0 0 300 299.999988" height="400" preserveAspectRatio="xMidYMid meet" version="1.0"><path fill="#ffbd59" d="M 26.757812 0 C 11.980469 0 0 11.980469 0 26.757812 L 0 270.566406 C 0 285.34375 11.980469 297.324219 26.757812 297.324219 L 133.796875 297.324219 C 148.574219 297.324219 160.554688 285.34375 160.554688 270.566406 L 160.554688 225.804688 C 161.53125 225.910156 162.523438 225.964844 163.527344 225.964844 L 237.859375 225.964844 C 252.636719 225.964844 264.617188 213.984375 264.617188 199.207031 L 264.617188 181.367188 L 270.566406 181.367188 C 285.34375 181.367188 297.324219 169.386719 297.324219 154.609375 L 297.324219 26.757812 C 297.324219 11.980469 285.34375 0 270.566406 0 Z M 23.785156 270.566406 L 23.785156 181.203125 C 24.761719 181.3125 25.753906 181.367188 26.757812 181.367188 L 80.277344 181.367188 C 86.84375 181.367188 92.171875 176.042969 92.171875 169.476562 C 92.171875 162.90625 86.84375 157.582031 80.277344 157.582031 L 26.757812 157.582031 C 25.117188 157.582031 23.785156 156.25 23.785156 154.609375 L 23.785156 26.757812 C 23.785156 25.117188 25.117188 23.785156 26.757812 23.785156 L 270.566406 23.785156 C 272.207031 23.785156 273.539062 25.117188 273.539062 26.757812 L 273.539062 154.609375 C 273.539062 156.25 272.207031 157.582031 270.566406 157.582031 L 220.019531 157.582031 C 213.453125 157.582031 208.125 162.90625 208.125 169.476562 C 208.125 176.042969 213.453125 181.367188 220.019531 181.367188 L 240.832031 181.367188 L 240.832031 199.207031 C 240.832031 200.847656 239.5 202.179688 237.859375 202.179688 L 163.527344 202.179688 C 161.886719 202.179688 160.554688 200.847656 160.554688 199.207031 L 160.554688 74.332031 C 160.554688 67.761719 155.230469 62.4375 148.660156 62.4375 C 142.09375 62.4375 136.769531 67.761719 136.769531 74.332031 L 136.769531 270.566406 C 136.769531 272.207031 135.4375 273.539062 133.796875 273.539062 L 26.757812 273.539062 C 25.117188 273.539062 23.785156 272.207031 23.785156 270.566406 Z M 23.785156 270.566406 " fill-opacity="1" fill-rule="evenodd"/><path fill="#ffbd59" d="M 286.613281 238.253906 C 299.964844 251.605469 299.964844 273.253906 286.613281 286.613281 C 273.253906 299.964844 251.605469 299.964844 238.253906 286.613281 C 224.898438 273.253906 224.898438 251.605469 238.253906 238.253906 C 251.605469 224.898438 273.253906 224.898438 286.613281 238.253906 Z M 269.792969 255.070312 C 273.855469 259.136719 273.855469 265.726562 269.792969 269.792969 C 265.726562 273.855469 259.136719 273.855469 255.070312 269.792969 C 251.007812 265.726562 251.007812 259.136719 255.070312 255.070312 C 259.136719 251.007812 265.726562 251.007812 269.792969 255.070312 Z M 269.792969 255.070312 " fill-opacity="1" fill-rule="evenodd"/></svg>