<svg xmlns="http://www.w3.org/2000/svg" xmlns:xlink="http://www.w3.org/1999/xlink" width="400" zoomAndPan="magnify" viewBox="0 0 300 299.999988" height="400" preserveAspectRatio="xMidYMid meet" version="1.0"><path fill="#ffbd59" d="M 78.207031 284.960938 L 45.460938 41.019531 C 45.027344 37.820312 42.074219 35.558594 38.863281 35.988281 C 35.652344 36.417969 33.398438 39.375 33.828125 42.585938 L 66.417969 285.320312 C 60.328125 287.359375 55.929688 293.105469 55.929688 299.878906 L 89.949219 299.878906 C 89.949219 292.648438 84.945312 286.59375 78.207031 284.960938 " fill-opacity="1" fill-rule="nonzero"/><path fill="#ffbd59" d="M 238.246094 81.578125 C 241.996094 61.40625 245.847656 41.9375 249.808594 23.328125 C 181.695312 -0.109375 125.320312 63.816406 59.316406 56.117188 L 76.183594 181.742188 C 142.183594 189.449219 198.5625 125.515625 266.671875 148.953125 C 257.09375 125.683594 247.617188 103.273438 238.246094 81.578125 " fill-opacity="1" fill-rule="nonzero"/></svg>