<svg xmlns="http://www.w3.org/2000/svg" xmlns:xlink="http://www.w3.org/1999/xlink" width="400" zoomAndPan="magnify" viewBox="0 0 300 299.999988" height="400" preserveAspectRatio="xMidYMid meet" version="1.0"><path fill="#ffffff" d="M 0 0 L 0 300 L 200 300 C 200 281.53125 210.121094 265.585938 225 256.933594 L 225 300 L 300 300 L 300 0 Z M 250 275 L 250 225 C 217.359375 225 189.660156 245.882812 179.359375 275 L 150 275 L 150 225 L 125 225 L 125 275 L 25 275 L 25 162.5 L 125.003906 162.5 L 125.003906 187.5 L 150 187.5 L 150 112.5 L 125 112.5 L 125 137.5 L 25 137.5 L 25 25 L 125.003906 25 L 125.003906 75 L 150 75 L 150 25 L 275 25 L 275 137.5 L 187.5 137.5 L 187.5 162.503906 L 275 162.503906 L 275 275.003906 L 250 275.003906 Z M 250 275 " fill-opacity="1" fill-rule="nonzero"/></svg>