<svg xmlns="http://www.w3.org/2000/svg" xmlns:xlink="http://www.w3.org/1999/xlink" width="400" zoomAndPan="magnify" viewBox="0 0 300 299.999988" height="400" preserveAspectRatio="xMidYMid meet" version="1.0"><defs><clipPath id="id1"><path d="M 0 27.375 L 300 27.375 L 300 246 L 0 246 Z M 0 27.375 " clip-rule="nonzero"/></clipPath><clipPath id="id2"><path d="M 259 231 L 300 231 L 300 272.625 L 259 272.625 Z M 259 231 " clip-rule="nonzero"/></clipPath><clipPath id="id3"><path d="M 0 231 L 41 231 L 41 272.625 L 0 272.625 Z M 0 231 " clip-rule="nonzero"/></clipPath></defs><g clip-path="url(#id1)"><path fill="#ffffff" d="M 221.355469 41 C 233.453125 41 244.230469 49.121094 247.554688 60.769531 L 266.332031 126.496094 L 267.023438 128.921875 L 268.539062 130.925781 L 278.074219 143.636719 C 283.347656 150.667969 286.25 159.375 286.25 168.160156 L 286.25 231.75 L 13.75 231.75 L 13.75 168.160156 C 13.75 159.375 16.652344 150.667969 21.925781 143.636719 L 31.460938 130.925781 L 32.976562 128.910156 L 33.667969 126.484375 L 52.445312 60.769531 C 55.769531 49.121094 66.546875 41 78.644531 41 L 221.355469 41 M 221.355469 27.375 L 78.644531 27.375 C 60.386719 27.375 44.351562 39.472656 39.335938 57.023438 L 20.5625 122.75 L 11.023438 135.460938 C 3.953125 144.890625 0.125 156.375 0.125 168.160156 L 0.125 245.375 L 299.875 245.375 L 299.875 168.160156 C 299.875 156.375 296.046875 144.890625 288.976562 135.460938 L 279.4375 122.75 L 260.664062 57.023438 C 255.648438 39.472656 239.613281 27.375 221.355469 27.375 Z M 221.355469 27.375 " fill-opacity="1" fill-rule="nonzero"/></g><g clip-path="url(#id2)"><path fill="#ffffff" d="M 299.875 231.75 L 259 231.75 L 259 259 C 259 266.519531 265.105469 272.625 272.625 272.625 L 286.25 272.625 C 293.769531 272.625 299.875 266.519531 299.875 259 Z M 299.875 231.75 " fill-opacity="1" fill-rule="nonzero"/></g><g clip-path="url(#id3)"><path fill="#ffffff" d="M 41 231.75 L 0.125 231.75 L 0.125 259 C 0.125 266.519531 6.230469 272.625 13.75 272.625 L 27.375 272.625 C 34.894531 272.625 41 266.519531 41 259 Z M 41 231.75 " fill-opacity="1" fill-rule="nonzero"/></g><path fill="#ffffff" d="M 275.433594 130.898438 L 290.570312 125.855469 C 296.128906 124.003906 299.875 118.796875 299.875 112.925781 L 299.875 109.125 C 299.875 101.605469 293.769531 95.5 286.25 95.5 L 259 95.5 Z M 275.433594 130.898438 " fill-opacity="1" fill-rule="nonzero"/><path fill="#ffffff" d="M 23.289062 130.476562 L 9.445312 125.855469 C 3.871094 124.003906 0.125 118.796875 0.125 112.925781 L 0.125 109.125 C 0.125 101.605469 6.230469 95.5 13.75 95.5 L 41 95.5 Z M 23.289062 130.476562 " fill-opacity="1" fill-rule="nonzero"/><path fill="#ffffff" d="M 288.976562 135.460938 L 279.4375 122.75 L 275.539062 109.125 L 24.460938 109.125 L 20.5625 122.75 L 11.023438 135.460938 C 3.953125 144.890625 0.125 156.375 0.125 168.160156 L 0.125 245.375 L 299.875 245.375 L 299.875 168.160156 C 299.875 156.375 296.046875 144.902344 288.976562 135.460938 Z M 47.8125 190.875 C 36.53125 190.875 27.375 181.71875 27.375 170.4375 C 27.375 159.15625 36.53125 150 47.8125 150 C 59.09375 150 68.25 159.15625 68.25 170.4375 C 68.25 181.71875 59.09375 190.875 47.8125 190.875 Z M 252.1875 190.875 C 240.90625 190.875 231.75 181.71875 231.75 170.4375 C 231.75 159.15625 240.90625 150 252.1875 150 C 263.46875 150 272.625 159.15625 272.625 170.4375 C 272.625 181.71875 263.46875 190.875 252.1875 190.875 Z M 252.1875 190.875 " fill-opacity="1" fill-rule="nonzero"/></svg>