<svg xmlns="http://www.w3.org/2000/svg" xmlns:xlink="http://www.w3.org/1999/xlink" width="400" zoomAndPan="magnify" viewBox="0 0 300 299.999988" height="400" preserveAspectRatio="xMidYMid meet" version="1.0"><path fill="#ffffff" d="M 0.53125 169.234375 C 0.441406 170.25 0.417969 171.265625 0.472656 172.28125 C 0.523438 173.296875 0.648438 174.304688 0.84375 175.300781 C 1.039062 176.300781 1.308594 177.28125 1.644531 178.238281 C 1.980469 179.199219 2.382812 180.132812 2.855469 181.035156 C 3.324219 181.9375 3.855469 182.800781 4.449219 183.625 C 5.042969 184.453125 5.691406 185.234375 6.398438 185.964844 C 7.105469 186.699219 7.859375 187.378906 8.660156 188.003906 C 9.464844 188.628906 10.304688 189.195312 11.191406 189.699219 C 12.84375 190.722656 14.34375 191.945312 15.679688 193.359375 C 17.019531 194.773438 18.15625 196.335938 19.089844 198.042969 C 20.023438 199.753906 20.722656 201.554688 21.191406 203.445312 C 21.660156 205.335938 21.878906 207.253906 21.847656 209.199219 L 21.847656 222.363281 C 21.847656 224.617188 21.984375 226.863281 22.257812 229.097656 C 22.53125 231.335938 22.941406 233.546875 23.484375 235.734375 C 24.027344 237.921875 24.703125 240.070312 25.507812 242.175781 C 26.3125 244.28125 27.242188 246.328125 28.296875 248.320312 C 29.351562 250.3125 30.523438 252.230469 31.8125 254.082031 C 33.101562 255.929688 34.5 257.695312 36.003906 259.371094 C 37.507812 261.050781 39.105469 262.632812 40.804688 264.117188 C 42.5 265.601562 44.28125 266.976562 46.144531 268.242188 C 46.730469 268.640625 47.28125 269.085938 47.789062 269.578125 C 48.296875 270.074219 48.757812 270.605469 49.171875 271.179688 C 49.585938 271.753906 49.949219 272.363281 50.257812 273 C 50.566406 273.636719 50.820312 274.296875 51.011719 274.980469 C 51.207031 275.660156 51.339844 276.355469 51.410156 277.058594 C 51.480469 277.765625 51.492188 278.46875 51.441406 279.175781 C 51.390625 279.882812 51.277344 280.582031 51.105469 281.269531 C 50.929688 281.953125 50.699219 282.621094 50.410156 283.269531 L 46.464844 291.953125 C 46.3125 292.347656 46.210938 292.75 46.152344 293.167969 C 46.097656 293.585938 46.089844 294.003906 46.132812 294.421875 C 46.175781 294.84375 46.265625 295.25 46.40625 295.648438 C 46.546875 296.046875 46.730469 296.421875 46.960938 296.773438 C 47.1875 297.128906 47.457031 297.449219 47.761719 297.738281 C 48.066406 298.03125 48.402344 298.28125 48.765625 298.492188 C 49.128906 298.703125 49.515625 298.867188 49.917969 298.988281 C 50.320312 299.109375 50.734375 299.179688 51.15625 299.199219 L 63.25 299.199219 C 63.742188 299.1875 64.226562 299.109375 64.695312 298.964844 C 65.167969 298.820312 65.609375 298.613281 66.023438 298.347656 C 66.4375 298.078125 66.808594 297.757812 67.132812 297.386719 C 67.460938 297.015625 67.726562 296.609375 67.941406 296.164062 L 73.695312 283.535156 C 74.082031 282.6875 74.578125 281.910156 75.1875 281.207031 C 75.800781 280.503906 76.496094 279.902344 77.28125 279.402344 C 78.066406 278.902344 78.90625 278.519531 79.800781 278.261719 C 80.695312 278.003906 81.609375 277.878906 82.539062 277.886719 L 216.925781 277.886719 C 217.859375 277.882812 218.777344 278.011719 219.671875 278.273438 C 220.570312 278.535156 221.410156 278.917969 222.195312 279.425781 C 222.980469 279.929688 223.679688 280.539062 224.285156 281.246094 C 224.894531 281.953125 225.390625 282.734375 225.773438 283.589844 L 231.527344 296.214844 C 231.738281 296.660156 232.007812 297.070312 232.332031 297.441406 C 232.660156 297.8125 233.027344 298.132812 233.441406 298.398438 C 233.855469 298.667969 234.296875 298.875 234.769531 299.019531 C 235.242188 299.164062 235.722656 299.242188 236.214844 299.253906 L 248.3125 299.253906 C 248.734375 299.230469 249.144531 299.160156 249.550781 299.042969 C 249.953125 298.921875 250.335938 298.757812 250.703125 298.546875 C 251.066406 298.335938 251.402344 298.082031 251.707031 297.792969 C 252.011719 297.503906 252.277344 297.179688 252.507812 296.828125 C 252.734375 296.472656 252.921875 296.097656 253.058594 295.699219 C 253.199219 295.304688 253.292969 294.894531 253.335938 294.476562 C 253.378906 294.058594 253.371094 293.640625 253.3125 293.222656 C 253.257812 292.804688 253.152344 292.398438 253 292.007812 L 249.058594 283.214844 C 248.769531 282.570312 248.535156 281.902344 248.363281 281.214844 C 248.191406 280.527344 248.078125 279.832031 248.027344 279.125 C 247.976562 278.417969 247.984375 277.710938 248.058594 277.007812 C 248.128906 276.300781 248.261719 275.609375 248.457031 274.925781 C 248.648438 274.242188 248.898438 273.585938 249.207031 272.945312 C 249.515625 272.308594 249.878906 271.703125 250.292969 271.128906 C 250.710938 270.554688 251.171875 270.019531 251.679688 269.527344 C 252.1875 269.03125 252.734375 268.585938 253.320312 268.1875 C 255.183594 266.921875 256.964844 265.550781 258.65625 264.066406 C 260.351562 262.585938 261.953125 261.007812 263.457031 259.328125 C 264.957031 257.652344 266.355469 255.890625 267.640625 254.042969 C 268.929688 252.199219 270.101562 250.28125 271.15625 248.289062 C 272.210938 246.300781 273.140625 244.253906 273.949219 242.152344 C 274.753906 240.050781 275.429688 237.90625 275.972656 235.722656 C 276.519531 233.535156 276.925781 231.328125 277.203125 229.09375 C 277.480469 226.855469 277.617188 224.613281 277.621094 222.363281 L 277.621094 209.199219 C 277.589844 207.253906 277.808594 205.335938 278.277344 203.445312 C 278.742188 201.554688 279.445312 199.753906 280.378906 198.042969 C 281.3125 196.335938 282.449219 194.773438 283.785156 193.359375 C 285.125 191.945312 286.621094 190.722656 288.277344 189.699219 C 289.160156 189.195312 290.003906 188.628906 290.804688 188.003906 C 291.609375 187.378906 292.363281 186.699219 293.070312 185.964844 C 293.773438 185.234375 294.425781 184.453125 295.019531 183.625 C 295.613281 182.800781 296.144531 181.9375 296.613281 181.035156 C 297.082031 180.132812 297.488281 179.199219 297.824219 178.238281 C 298.160156 177.28125 298.425781 176.300781 298.621094 175.300781 C 298.820312 174.304688 298.945312 173.296875 298.996094 172.28125 C 299.046875 171.265625 299.027344 170.25 298.933594 169.234375 C 298.734375 167.914062 298.421875 166.621094 297.992188 165.355469 C 297.566406 164.085938 297.027344 162.867188 296.382812 161.699219 C 295.738281 160.527344 294.996094 159.421875 294.15625 158.382812 C 293.316406 157.34375 292.390625 156.386719 291.378906 155.511719 C 290.367188 154.636719 289.289062 153.855469 288.140625 153.175781 C 286.992188 152.492188 285.792969 151.914062 284.539062 151.445312 C 283.289062 150.972656 282.003906 150.617188 280.691406 150.375 C 279.375 150.132812 278.050781 150.007812 276.714844 150 L 22.753906 150 C 21.417969 150.007812 20.089844 150.132812 18.777344 150.375 C 17.460938 150.617188 16.179688 150.972656 14.925781 151.445312 C 13.675781 151.914062 12.476562 152.492188 11.328125 153.175781 C 10.179688 153.855469 9.097656 154.636719 8.085938 155.511719 C 7.078125 156.386719 6.152344 157.34375 5.3125 158.382812 C 4.46875 159.421875 3.726562 160.527344 3.082031 161.699219 C 2.4375 162.867188 1.902344 164.085938 1.472656 165.355469 C 1.046875 166.621094 0.730469 167.914062 0.53125 169.234375 Z M 0.53125 169.234375 " fill-opacity="1" fill-rule="nonzero"/><path fill="#ffffff" d="M 245.648438 128.6875 C 246.347656 128.6875 247.042969 128.617188 247.726562 128.480469 C 248.414062 128.34375 249.082031 128.140625 249.726562 127.875 C 250.375 127.605469 250.988281 127.277344 251.570312 126.890625 C 252.152344 126.5 252.6875 126.058594 253.183594 125.5625 C 253.679688 125.070312 254.121094 124.53125 254.507812 123.949219 C 254.898438 123.367188 255.226562 122.753906 255.496094 122.105469 C 255.761719 121.460938 255.964844 120.792969 256.101562 120.109375 C 256.238281 119.421875 256.304688 118.726562 256.304688 118.027344 L 256.304688 43.429688 C 256.304688 42.03125 256.238281 40.640625 256.101562 39.25 C 255.964844 37.859375 255.757812 36.480469 255.488281 35.113281 C 255.214844 33.742188 254.875 32.390625 254.46875 31.054688 C 254.066406 29.71875 253.59375 28.40625 253.058594 27.113281 C 252.527344 25.824219 251.929688 24.5625 251.273438 23.332031 C 250.613281 22.101562 249.898438 20.90625 249.121094 19.746094 C 248.34375 18.582031 247.515625 17.464844 246.628906 16.382812 C 245.742188 15.304688 244.808594 14.273438 243.820312 13.285156 C 242.832031 12.296875 241.800781 11.359375 240.71875 10.476562 C 239.640625 9.589844 238.519531 8.757812 237.359375 7.984375 C 236.199219 7.207031 235.003906 6.492188 233.773438 5.832031 C 232.539062 5.175781 231.28125 4.578125 229.988281 4.042969 C 228.699219 3.511719 227.386719 3.039062 226.050781 2.636719 C 224.714844 2.230469 223.363281 1.890625 221.992188 1.617188 C 220.625 1.347656 219.246094 1.140625 217.855469 1.003906 C 216.464844 0.867188 215.074219 0.800781 213.675781 0.800781 L 203.019531 0.800781 C 201.757812 0.800781 200.496094 0.855469 199.238281 0.96875 C 197.980469 1.082031 196.730469 1.246094 195.484375 1.472656 C 194.242188 1.695312 193.011719 1.972656 191.792969 2.304688 C 190.574219 2.636719 189.371094 3.023438 188.1875 3.464844 C 187.003906 3.902344 185.84375 4.394531 184.703125 4.9375 C 183.5625 5.480469 182.445312 6.074219 181.359375 6.714844 C 180.269531 7.359375 179.214844 8.046875 178.1875 8.78125 C 177.160156 9.519531 176.167969 10.296875 175.210938 11.121094 C 174.253906 11.945312 173.335938 12.8125 172.457031 13.71875 C 171.574219 14.625 170.738281 15.566406 169.941406 16.546875 C 169.144531 17.527344 168.390625 18.539062 167.6875 19.589844 C 166.980469 20.636719 166.320312 21.710938 165.710938 22.816406 C 165.097656 23.921875 164.539062 25.054688 164.027344 26.207031 C 163.519531 27.363281 163.058594 28.539062 162.65625 29.738281 C 162.25 30.933594 161.898438 32.144531 161.597656 33.371094 C 161.300781 34.601562 161.058594 35.839844 160.871094 37.085938 C 160.808594 37.519531 160.710938 37.941406 160.578125 38.359375 C 160.441406 38.773438 160.269531 39.171875 160.0625 39.554688 C 159.859375 39.941406 159.617188 40.304688 159.347656 40.644531 C 159.074219 40.988281 158.777344 41.304688 158.449219 41.589844 C 158.121094 41.878906 157.773438 42.136719 157.398438 42.363281 C 157.023438 42.589844 156.636719 42.78125 156.226562 42.9375 C 155.820312 43.09375 155.402344 43.214844 154.972656 43.296875 C 154.546875 43.378906 154.113281 43.421875 153.675781 43.429688 L 150.960938 43.429688 C 150.179688 43.429688 149.40625 43.503906 148.640625 43.65625 C 147.875 43.808594 147.132812 44.035156 146.410156 44.332031 C 145.691406 44.632812 145.007812 44.996094 144.359375 45.429688 C 143.707031 45.863281 143.109375 46.355469 142.558594 46.910156 C 142.003906 47.460938 141.511719 48.058594 141.078125 48.710938 C 140.644531 49.359375 140.28125 50.042969 139.980469 50.761719 C 139.683594 51.484375 139.457031 52.226562 139.304688 52.992188 C 139.152344 53.757812 139.078125 54.53125 139.078125 55.3125 L 139.078125 59.945312 C 139.078125 60.261719 139.105469 60.574219 139.167969 60.882812 C 139.230469 61.191406 139.320312 61.492188 139.441406 61.78125 C 139.5625 62.074219 139.710938 62.347656 139.882812 62.609375 C 140.058594 62.871094 140.257812 63.113281 140.480469 63.335938 C 140.703125 63.558594 140.945312 63.757812 141.207031 63.933594 C 141.46875 64.109375 141.746094 64.257812 142.035156 64.378906 C 142.328125 64.496094 142.628906 64.589844 142.9375 64.648438 C 143.246094 64.710938 143.558594 64.742188 143.871094 64.742188 L 198.222656 64.742188 C 198.539062 64.742188 198.851562 64.710938 199.160156 64.648438 C 199.46875 64.589844 199.769531 64.496094 200.058594 64.378906 C 200.351562 64.257812 200.625 64.109375 200.886719 63.933594 C 201.148438 63.757812 201.390625 63.558594 201.613281 63.335938 C 201.835938 63.113281 202.035156 62.871094 202.210938 62.609375 C 202.386719 62.347656 202.535156 62.074219 202.65625 61.78125 C 202.773438 61.492188 202.867188 61.191406 202.925781 60.882812 C 202.988281 60.574219 203.019531 60.261719 203.019531 59.945312 L 203.019531 55.3125 C 203.019531 54.53125 202.945312 53.757812 202.792969 52.992188 C 202.640625 52.226562 202.414062 51.484375 202.113281 50.761719 C 201.816406 50.042969 201.449219 49.359375 201.015625 48.710938 C 200.582031 48.058594 200.089844 47.460938 199.539062 46.910156 C 198.988281 46.355469 198.386719 45.863281 197.738281 45.429688 C 197.089844 44.996094 196.40625 44.632812 195.683594 44.332031 C 194.964844 44.035156 194.21875 43.808594 193.453125 43.65625 C 192.691406 43.503906 191.917969 43.429688 191.136719 43.429688 C 190.828125 43.421875 190.519531 43.398438 190.210938 43.355469 C 189.90625 43.308594 189.601562 43.246094 189.304688 43.164062 C 189.003906 43.082031 188.710938 42.980469 188.425781 42.863281 C 188.140625 42.742188 187.863281 42.605469 187.59375 42.453125 C 187.324219 42.296875 187.066406 42.125 186.820312 41.9375 C 186.574219 41.75 186.339844 41.550781 186.117188 41.332031 C 185.894531 41.117188 185.6875 40.886719 185.496094 40.644531 C 185.304688 40.402344 185.128906 40.148438 184.964844 39.882812 C 184.804688 39.617188 184.664062 39.34375 184.539062 39.058594 C 184.410156 38.777344 184.304688 38.484375 184.214844 38.1875 C 184.125 37.890625 184.054688 37.589844 184.003906 37.285156 C 183.953125 36.980469 183.921875 36.671875 183.910156 36.363281 C 183.898438 36.050781 183.90625 35.742188 183.933594 35.433594 C 183.960938 35.125 184.007812 34.820312 184.070312 34.515625 C 184.136719 34.214844 184.222656 33.917969 184.324219 33.625 C 184.429688 33.332031 184.550781 33.046875 184.6875 32.769531 C 185.617188 31.160156 186.742188 29.695312 188.054688 28.378906 C 189.367188 27.0625 190.828125 25.9375 192.433594 25 C 194.042969 24.066406 195.742188 23.355469 197.539062 22.863281 C 199.332031 22.375 201.160156 22.125 203.019531 22.113281 L 213.675781 22.113281 C 214.375 22.113281 215.070312 22.148438 215.765625 22.214844 C 216.460938 22.285156 217.148438 22.386719 217.835938 22.523438 C 218.519531 22.660156 219.195312 22.828125 219.863281 23.03125 C 220.53125 23.234375 221.1875 23.46875 221.832031 23.734375 C 222.476562 24.003906 223.109375 24.300781 223.722656 24.628906 C 224.339844 24.960938 224.9375 25.316406 225.519531 25.707031 C 226.097656 26.09375 226.660156 26.507812 227.199219 26.953125 C 227.738281 27.394531 228.253906 27.863281 228.75 28.355469 C 229.242188 28.851562 229.710938 29.367188 230.152344 29.90625 C 230.597656 30.445312 231.011719 31.007812 231.398438 31.585938 C 231.785156 32.167969 232.144531 32.765625 232.472656 33.378906 C 232.804688 33.996094 233.101562 34.625 233.367188 35.269531 C 233.636719 35.917969 233.871094 36.574219 234.074219 37.242188 C 234.277344 37.910156 234.445312 38.585938 234.582031 39.269531 C 234.71875 39.953125 234.820312 40.644531 234.886719 41.339844 C 234.957031 42.035156 234.992188 42.730469 234.992188 43.429688 L 234.992188 118.027344 C 234.992188 118.726562 235.058594 119.421875 235.195312 120.109375 C 235.332031 120.792969 235.535156 121.460938 235.800781 122.105469 C 236.070312 122.753906 236.398438 123.367188 236.789062 123.949219 C 237.175781 124.53125 237.617188 125.070312 238.113281 125.5625 C 238.605469 126.058594 239.144531 126.5 239.726562 126.890625 C 240.308594 127.277344 240.921875 127.605469 241.570312 127.875 C 242.214844 128.140625 242.882812 128.34375 243.570312 128.480469 C 244.253906 128.617188 244.949219 128.6875 245.648438 128.6875 Z M 245.648438 128.6875 " fill-opacity="1" fill-rule="nonzero"/></svg>