<svg xmlns="http://www.w3.org/2000/svg" xmlns:xlink="http://www.w3.org/1999/xlink" width="400" zoomAndPan="magnify" viewBox="0 0 300 299.999988" height="400" preserveAspectRatio="xMidYMid meet" version="1.0"><defs><clipPath id="id1"><path d="M 0 43.910156 L 300 43.910156 L 300 256.160156 L 0 256.160156 Z M 0 43.910156 " clip-rule="nonzero"/></clipPath></defs><g clip-path="url(#id1)"><path fill="#ffffff" d="M 268.570312 131.304688 L 31.429688 131.304688 C 14.230469 131.304688 0.226562 145.316406 0.226562 162.519531 L 0.226562 249.917969 C 0.226562 253.363281 3.023438 256.160156 6.464844 256.160156 C 9.910156 256.160156 12.707031 253.363281 12.707031 249.917969 L 12.707031 231.1875 L 287.292969 231.1875 L 287.292969 249.917969 C 287.292969 253.363281 290.089844 256.160156 293.535156 256.160156 C 296.976562 256.160156 299.773438 253.363281 299.773438 249.917969 L 299.773438 162.519531 C 299.773438 145.316406 285.769531 131.304688 268.570312 131.304688 Z M 287.292969 218.703125 L 12.707031 218.703125 L 12.707031 206.21875 L 287.292969 206.21875 Z M 31.429688 118.820312 L 62.632812 118.820312 C 60.710938 118.820312 58.898438 117.933594 57.714844 116.421875 C 56.527344 114.914062 56.117188 112.941406 56.578125 111.066406 L 60.460938 95.546875 C 62.542969 87.195312 70.019531 81.363281 78.621094 81.363281 L 118.796875 81.363281 C 129.117188 81.363281 137.519531 89.765625 137.519531 100.09375 L 137.519531 112.578125 C 137.519531 116.023438 134.722656 118.820312 131.277344 118.820312 L 168.722656 118.820312 C 165.277344 118.820312 162.480469 116.023438 162.480469 112.578125 L 162.480469 100.09375 C 162.480469 89.765625 170.882812 81.363281 181.203125 81.363281 L 221.378906 81.363281 C 229.980469 81.363281 237.457031 87.195312 239.539062 95.546875 L 243.421875 111.066406 C 243.894531 112.929688 243.472656 114.914062 242.285156 116.421875 C 241.101562 117.933594 239.289062 118.820312 237.367188 118.820312 L 268.570312 118.820312 C 272.015625 118.820312 274.8125 116.023438 274.8125 112.578125 L 274.8125 75.121094 C 274.8125 57.917969 260.808594 43.910156 243.609375 43.910156 L 56.390625 43.910156 C 39.191406 43.910156 25.1875 57.917969 25.1875 75.121094 L 25.1875 112.578125 C 25.1875 116.023438 27.984375 118.820312 31.429688 118.820312 Z M 31.429688 118.820312 " fill-opacity="1" fill-rule="nonzero"/></g></svg>