<svg xmlns="http://www.w3.org/2000/svg" xmlns:xlink="http://www.w3.org/1999/xlink" width="400" zoomAndPan="magnify" viewBox="0 0 300 299.999988" height="400" preserveAspectRatio="xMidYMid meet" version="1.0"><path fill="#706f6f" d="M 150 0.578125 C 67.152344 0.578125 0 67.730469 0 150.578125 C 0 225.785156 55.394531 287.875 127.582031 298.71875 L 127.582031 190.328125 L 90.460938 190.328125 L 90.460938 150.898438 L 127.582031 150.898438 L 127.582031 124.660156 C 127.582031 81.21875 148.742188 62.15625 184.847656 62.15625 C 202.128906 62.15625 211.28125 63.4375 215.609375 64.027344 L 215.609375 98.445312 L 190.984375 98.445312 C 175.660156 98.445312 170.308594 112.972656 170.308594 129.359375 L 170.308594 150.910156 L 215.226562 150.910156 L 209.132812 190.339844 L 170.308594 190.339844 L 170.308594 299.054688 C 243.519531 289.109375 300 226.511719 300 150.578125 C 300 67.730469 232.847656 0.578125 150 0.578125 Z M 150 0.578125 " fill-opacity="1" fill-rule="nonzero"/></svg>