<svg xmlns="http://www.w3.org/2000/svg" xmlns:xlink="http://www.w3.org/1999/xlink" width="400" zoomAndPan="magnify" viewBox="0 0 300 299.999988" height="400" preserveAspectRatio="xMidYMid meet" version="1.0"><path fill="#706f6f" d="M 87.476562 0 C 39.238281 0 0 39.273438 0 87.523438 L 0 212.523438 C 0 260.761719 39.273438 300 87.523438 300 L 212.523438 300 C 260.761719 300 300 260.726562 300 212.476562 L 300 87.476562 C 300 39.238281 260.726562 0 212.476562 0 Z M 237.5 50 C 244.398438 50 250 55.601562 250 62.5 C 250 69.398438 244.398438 75 237.5 75 C 230.601562 75 225 69.398438 225 62.5 C 225 55.601562 230.601562 50 237.5 50 Z M 150 75 C 191.363281 75 225 108.636719 225 150 C 225 191.363281 191.363281 225 150 225 C 108.636719 225 75 191.363281 75 150 C 75 108.636719 108.636719 75 150 75 Z M 150 100 C 148.363281 100 146.730469 100.082031 145.097656 100.242188 C 143.46875 100.402344 141.851562 100.640625 140.246094 100.960938 C 138.640625 101.28125 137.054688 101.675781 135.484375 102.152344 C 133.917969 102.628906 132.378906 103.179688 130.867188 103.804688 C 129.351562 104.433594 127.875 105.132812 126.429688 105.902344 C 124.984375 106.675781 123.582031 107.515625 122.222656 108.425781 C 120.859375 109.335938 119.546875 110.3125 118.28125 111.347656 C 117.015625 112.386719 115.800781 113.488281 114.644531 114.644531 C 113.488281 115.800781 112.386719 117.015625 111.347656 118.28125 C 110.3125 119.546875 109.335938 120.859375 108.425781 122.222656 C 107.515625 123.582031 106.675781 124.984375 105.902344 126.429688 C 105.132812 127.875 104.433594 129.351562 103.804688 130.867188 C 103.179688 132.378906 102.628906 133.917969 102.152344 135.484375 C 101.675781 137.054688 101.28125 138.640625 100.960938 140.246094 C 100.640625 141.851562 100.402344 143.46875 100.242188 145.097656 C 100.082031 146.730469 100 148.363281 100 150 C 100 151.636719 100.082031 153.269531 100.242188 154.902344 C 100.402344 156.53125 100.640625 158.148438 100.960938 159.753906 C 101.28125 161.359375 101.675781 162.945312 102.152344 164.515625 C 102.628906 166.082031 103.179688 167.621094 103.804688 169.132812 C 104.433594 170.648438 105.132812 172.125 105.902344 173.570312 C 106.675781 175.015625 107.515625 176.417969 108.425781 177.777344 C 109.335938 179.140625 110.3125 180.453125 111.347656 181.71875 C 112.386719 182.984375 113.488281 184.199219 114.644531 185.355469 C 115.800781 186.511719 117.015625 187.613281 118.28125 188.652344 C 119.546875 189.6875 120.859375 190.664062 122.222656 191.574219 C 123.582031 192.484375 124.984375 193.324219 126.429688 194.097656 C 127.875 194.867188 129.351562 195.566406 130.867188 196.195312 C 132.378906 196.820312 133.917969 197.371094 135.484375 197.847656 C 137.054688 198.324219 138.640625 198.71875 140.246094 199.039062 C 141.851562 199.359375 143.46875 199.597656 145.097656 199.757812 C 146.730469 199.917969 148.363281 200 150 200 C 151.636719 200 153.269531 199.917969 154.902344 199.757812 C 156.53125 199.597656 158.148438 199.359375 159.753906 199.039062 C 161.359375 198.71875 162.945312 198.324219 164.515625 197.847656 C 166.082031 197.371094 167.621094 196.820312 169.132812 196.195312 C 170.648438 195.566406 172.125 194.867188 173.570312 194.097656 C 175.015625 193.324219 176.417969 192.484375 177.777344 191.574219 C 179.140625 190.664062 180.453125 189.6875 181.71875 188.652344 C 182.984375 187.613281 184.199219 186.511719 185.355469 185.355469 C 186.511719 184.199219 187.613281 182.984375 188.652344 181.71875 C 189.6875 180.453125 190.664062 179.140625 191.574219 177.777344 C 192.484375 176.417969 193.324219 175.015625 194.097656 173.570312 C 194.867188 172.125 195.566406 170.648438 196.195312 169.132812 C 196.820312 167.621094 197.371094 166.082031 197.847656 164.515625 C 198.324219 162.945312 198.71875 161.359375 199.039062 159.753906 C 199.359375 158.148438 199.597656 156.53125 199.757812 154.902344 C 199.917969 153.269531 200 151.636719 200 150 C 200 148.363281 199.917969 146.730469 199.757812 145.097656 C 199.597656 143.46875 199.359375 141.851562 199.039062 140.246094 C 198.71875 138.640625 198.324219 137.054688 197.847656 135.484375 C 197.371094 133.917969 196.820312 132.378906 196.195312 130.867188 C 195.566406 129.351562 194.867188 127.875 194.097656 126.429688 C 193.324219 124.984375 192.484375 123.582031 191.574219 122.222656 C 190.664062 120.859375 189.6875 119.546875 188.652344 118.28125 C 187.613281 117.015625 186.511719 115.800781 185.355469 114.644531 C 184.199219 113.488281 182.984375 112.386719 181.71875 111.347656 C 180.453125 110.3125 179.140625 109.335938 177.777344 108.425781 C 176.417969 107.515625 175.015625 106.675781 173.570312 105.902344 C 172.125 105.132812 170.648438 104.433594 169.132812 103.804688 C 167.621094 103.179688 166.082031 102.628906 164.515625 102.152344 C 162.945312 101.675781 161.359375 101.28125 159.753906 100.960938 C 158.148438 100.640625 156.53125 100.402344 154.902344 100.242188 C 153.269531 100.082031 151.636719 100 150 100 Z M 150 100 " fill-opacity="1" fill-rule="nonzero"/></svg>