<svg xmlns="http://www.w3.org/2000/svg" xmlns:xlink="http://www.w3.org/1999/xlink" width="400" zoomAndPan="magnify" viewBox="0 0 300 299.999988" height="400" preserveAspectRatio="xMidYMid meet" version="1.0"><path fill="#706f6f" d="M 150 0 C 67.292969 0 0 67.285156 0 150 C 0 232.714844 67.292969 300 150 300 C 232.707031 300 300 232.714844 300 150 C 300 67.285156 232.707031 0 150 0 Z M 104.347656 215.21875 L 78.261719 215.21875 L 78.261719 117.390625 L 104.347656 117.390625 Z M 91.304688 97.824219 C 84.097656 97.824219 78.261719 91.988281 78.261719 84.78125 C 78.261719 77.574219 84.097656 71.738281 91.304688 71.738281 C 98.511719 71.738281 104.347656 77.574219 104.347656 84.78125 C 104.347656 91.988281 98.511719 97.824219 91.304688 97.824219 Z M 228.261719 215.21875 L 202.175781 215.21875 L 202.175781 166.304688 C 202.175781 153.75 191.902344 143.476562 179.347656 143.476562 C 166.792969 143.476562 156.523438 153.75 156.523438 166.304688 L 156.523438 215.21875 L 130.433594 215.21875 L 130.433594 117.390625 L 156.523438 117.390625 L 156.523438 129.234375 C 164.140625 121.917969 174.46875 117.390625 185.871094 117.390625 C 209.28125 117.390625 228.261719 136.371094 228.261719 159.78125 Z M 228.261719 215.21875 " fill-opacity="1" fill-rule="nonzero"/></svg>