<svg xmlns="http://www.w3.org/2000/svg" xmlns:xlink="http://www.w3.org/1999/xlink" width="400" zoomAndPan="magnify" viewBox="0 0 300 299.999988" height="400" preserveAspectRatio="xMidYMid meet" version="1.0"><defs><clipPath id="id1"><path d="M 22.632812 0 L 277.363281 0 L 277.363281 300 L 22.632812 300 Z M 22.632812 0 " clip-rule="nonzero"/></clipPath></defs><g clip-path="url(#id1)"><path fill="#ffffff" d="M 67.71875 30 L 67.71875 15 C 67.71875 6.75 74.464844 0 82.703125 0 L 262.515625 0 C 270.753906 0 277.5 6.75 277.5 15 L 277.5 75 C 277.5 83.25 270.753906 90 262.515625 90 L 82.703125 90 C 74.464844 90 67.71875 83.25 67.71875 75 L 67.71875 60 L 52.734375 60 L 52.734375 120 L 202.578125 120 L 202.578125 285 C 202.578125 293.25 195.835938 300 187.59375 300 L 157.625 300 C 149.382812 300 142.640625 293.25 142.640625 285 L 142.640625 150 L 22.769531 150 L 22.769531 30 Z M 67.71875 30 " fill-opacity="1" fill-rule="nonzero"/></g></svg>