<svg xmlns="http://www.w3.org/2000/svg" xmlns:xlink="http://www.w3.org/1999/xlink" width="400" zoomAndPan="magnify" viewBox="0 0 300 299.999988" height="400" preserveAspectRatio="xMidYMid meet" version="1.0"><path fill="#ffffff" d="M 290.769531 300.050781 L 166.105469 300.050781 C 160.980469 300.050781 156.820312 295.894531 156.820312 290.765625 L 156.820312 133.738281 C 156.820312 128.609375 160.980469 124.453125 166.105469 124.453125 L 290.769531 124.453125 C 295.894531 124.453125 300.050781 128.609375 300.050781 133.738281 L 300.050781 290.765625 C 300.050781 295.894531 295.894531 300.050781 290.769531 300.050781 Z M 175.390625 281.484375 L 281.484375 281.484375 L 281.484375 143.023438 L 175.390625 143.023438 Z M 175.390625 281.484375 " fill-opacity="1" fill-rule="nonzero"/><path fill="#ffffff" d="M 290.769531 102.417969 L 166.105469 102.417969 C 160.980469 102.417969 156.820312 98.261719 156.820312 93.132812 L 156.820312 9.308594 C 156.820312 4.179688 160.980469 0.0234375 166.105469 0.0234375 L 290.769531 0.0234375 C 295.894531 0.0234375 300.050781 4.179688 300.050781 9.308594 L 300.050781 93.132812 C 300.050781 98.261719 295.894531 102.417969 290.769531 102.417969 Z M 175.390625 83.851562 L 281.484375 83.851562 L 281.484375 18.589844 L 175.390625 18.589844 Z M 175.390625 83.851562 " fill-opacity="1" fill-rule="nonzero"/><path fill="#ffffff" d="M 125.503906 161.429688 L 9.308594 161.429688 C 4.179688 161.429688 0.0234375 157.273438 0.0234375 152.144531 L 0.0234375 9.308594 C 0.0234375 4.179688 4.179688 0.0234375 9.308594 0.0234375 L 125.503906 0.0234375 C 130.628906 0.0234375 134.789062 4.179688 134.789062 9.308594 L 134.789062 152.144531 C 134.789062 157.273438 130.632812 161.429688 125.503906 161.429688 Z M 18.589844 142.859375 L 116.21875 142.859375 L 116.21875 18.589844 L 18.589844 18.589844 Z M 18.589844 142.859375 " fill-opacity="1" fill-rule="nonzero"/><path fill="#ffffff" d="M 125.503906 300.050781 L 9.308594 300.050781 C 4.179688 300.050781 0.0234375 295.894531 0.0234375 290.765625 L 0.0234375 192.75 C 0.0234375 187.621094 4.179688 183.464844 9.308594 183.464844 L 125.503906 183.464844 C 130.632812 183.464844 134.789062 187.621094 134.789062 192.75 L 134.789062 290.765625 C 134.789062 295.894531 130.632812 300.050781 125.503906 300.050781 Z M 18.589844 281.484375 L 116.21875 281.484375 L 116.21875 202.035156 L 18.589844 202.035156 Z M 18.589844 281.484375 " fill-opacity="1" fill-rule="nonzero"/></svg>