<svg xmlns="http://www.w3.org/2000/svg" xmlns:xlink="http://www.w3.org/1999/xlink" width="400" zoomAndPan="magnify" viewBox="0 0 300 299.999988" height="400" preserveAspectRatio="xMidYMid meet" version="1.0"><defs><clipPath id="id1"><path d="M 185 127 L 296.121094 127 L 296.121094 279 L 185 279 Z M 185 127 " clip-rule="nonzero"/></clipPath></defs><g clip-path="url(#id1)"><path fill="#706f6f" d="M 296.042969 154.925781 C 291.914062 138.734375 277.34375 127.386719 260.621094 127.386719 L 215.582031 127.386719 C 215.449219 127.386719 215.289062 127.496094 215.234375 127.628906 L 211.667969 137.695312 L 205.515625 137.296875 L 202.238281 127.628906 C 202.1875 127.496094 202.027344 127.386719 201.894531 127.363281 L 186.097656 127.363281 C 185.886719 127.363281 185.726562 127.519531 185.726562 127.734375 L 185.726562 161.503906 C 185.726562 161.71875 185.859375 161.851562 186.074219 161.851562 L 201.894531 161.851562 C 202.027344 161.851562 202.1875 161.773438 202.238281 161.613281 L 205.515625 151.945312 L 211.667969 151.542969 L 215.234375 161.640625 C 215.289062 161.746094 215.449219 161.851562 215.582031 161.851562 L 225.089844 161.851562 L 225.089844 273.953125 C 225.089844 276.242188 226.953125 278.105469 229.246094 278.105469 L 233.054688 278.105469 C 235.34375 278.105469 237.234375 276.242188 237.234375 273.953125 L 237.234375 161.851562 L 250.550781 161.851562 C 250.683594 161.851562 250.84375 161.746094 250.898438 161.640625 L 257.078125 146.378906 C 257.53125 145.3125 258.515625 144.566406 259.660156 144.460938 C 272.550781 143.207031 285.441406 147.097656 295.484375 155.273438 C 295.617188 155.40625 295.855469 155.378906 295.988281 155.246094 C 296.09375 155.167969 296.121094 155.007812 296.070312 154.902344 L 296.042969 154.925781 " fill-opacity="1" fill-rule="nonzero"/></g><path fill="#706f6f" d="M 201.972656 187.101562 C 208.765625 187.953125 214.996094 191.230469 219.523438 196.34375 L 219.523438 273.980469 C 219.523438 279.332031 223.890625 283.671875 229.246094 283.671875 L 233.054688 283.671875 C 233.1875 283.699219 233.320312 283.699219 233.425781 283.671875 C 232.628906 292.914062 224.902344 300 215.636719 300 L 201.972656 300 L 201.972656 187.101562 " fill-opacity="1" fill-rule="nonzero"/><path fill="#706f6f" d="M 175.871094 243.457031 C 175.871094 246.171875 173.6875 248.332031 170.996094 248.332031 L 66.941406 248.332031 C 64.25 248.359375 62.066406 246.171875 62.039062 243.484375 C 62.039062 243.484375 62.039062 243.484375 62.039062 243.457031 L 62.039062 183.613281 L 41.503906 186.382812 L 41.503906 300 L 196.40625 300 L 196.40625 186.382812 L 175.871094 183.613281 L 175.871094 243.457031 " fill-opacity="1" fill-rule="nonzero"/><path fill="#706f6f" d="M 132.617188 203.558594 C 141.808594 199.511719 149.292969 192.320312 153.710938 183.292969 C 154.113281 182.492188 154.40625 181.640625 154.617188 180.789062 L 170.304688 182.890625 L 170.304688 242.765625 L 67.605469 242.765625 L 67.605469 182.890625 L 83.265625 180.789062 C 83.480469 181.667969 83.800781 182.492188 84.199219 183.292969 C 88.621094 192.320312 96.105469 199.511719 105.320312 203.558594 C 114.003906 207.394531 123.9375 207.394531 132.617188 203.558594 " fill-opacity="1" fill-rule="nonzero"/><path fill="#706f6f" d="M 35.964844 187.101562 C 22.914062 188.726562 12.714844 199.191406 11.410156 212.269531 L 4.539062 280.316406 C 3.527344 290.144531 10.691406 298.90625 20.519531 299.894531 C 21.132812 299.945312 21.71875 300 22.304688 300 L 35.964844 300 L 35.964844 187.101562 " fill-opacity="1" fill-rule="nonzero"/><path fill="#706f6f" d="M 130.355469 198.472656 C 138.371094 194.957031 144.871094 188.699219 148.730469 180.839844 C 149.476562 179.324219 149.691406 177.617188 149.34375 175.96875 C 148.171875 170.320312 145.375 165.15625 141.355469 161.054688 C 127.027344 167.070312 110.886719 167.070312 96.558594 161.054688 C 92.507812 165.15625 89.765625 170.320312 88.59375 175.96875 C 88.222656 177.617188 88.433594 179.324219 89.179688 180.839844 C 93.042969 188.699219 99.539062 194.957031 107.53125 198.472656 C 114.800781 201.695312 123.058594 201.695312 130.328125 198.472656 L 130.355469 198.472656 " fill-opacity="1" fill-rule="nonzero"/><path fill="#706f6f" d="M 171.265625 86.933594 L 66.699219 86.933594 L 66.699219 107.734375 C 66.886719 136.601562 90.484375 159.855469 119.355469 159.640625 C 147.933594 159.429688 171.050781 136.308594 171.265625 107.734375 L 171.265625 86.933594 " fill-opacity="1" fill-rule="nonzero"/><path fill="#706f6f" d="M 55.675781 68.742188 C 55.382812 70.953125 53.492188 72.578125 51.28125 72.578125 L 51.015625 72.578125 L 51.015625 81.390625 L 186.925781 81.390625 L 186.925781 72.578125 L 186.632812 72.578125 C 184.421875 72.550781 182.558594 70.925781 182.265625 68.742188 C 178.589844 42.828125 161.277344 20.878906 136.878906 11.347656 L 136.878906 61.363281 C 136.828125 62.882812 135.523438 64.082031 133.976562 64 C 132.566406 63.945312 131.394531 62.800781 131.339844 61.363281 L 131.339844 0 L 106.597656 0 L 106.597656 61.363281 C 106.542969 62.882812 105.238281 64.082031 103.695312 64.027344 C 102.257812 64 101.085938 62.828125 101.03125 61.363281 L 101.03125 11.347656 C 76.660156 20.90625 59.324219 42.828125 55.675781 68.742188 " fill-opacity="1" fill-rule="nonzero"/></svg>