<svg xmlns="http://www.w3.org/2000/svg" xmlns:xlink="http://www.w3.org/1999/xlink" width="400" zoomAndPan="magnify" viewBox="0 0 300 299.999988" height="400" preserveAspectRatio="xMidYMid meet" version="1.0"><defs><clipPath id="id1"><path d="M 5.25 0 L 294.75 0 L 294.75 300 L 5.25 300 Z M 5.25 0 " clip-rule="nonzero"/></clipPath></defs><g clip-path="url(#id1)"><path fill="#706f6f" d="M 133.929688 0 C 132.527344 0 131.179688 0.265625 129.882812 0.792969 C 128.585938 1.320312 127.4375 2.074219 126.4375 3.054688 L 9.5625 98.648438 C 9.429688 98.75 9.296875 98.851562 9.164062 98.960938 L 8.769531 99.296875 L 8.769531 99.316406 C 7.683594 100.328125 6.84375 101.515625 6.25 102.875 C 5.65625 104.234375 5.359375 105.660156 5.355469 107.144531 C 5.355469 107.847656 5.425781 108.542969 5.5625 109.234375 C 5.699219 109.921875 5.902344 110.59375 6.171875 111.242188 C 6.441406 111.894531 6.773438 112.511719 7.164062 113.09375 C 7.554688 113.679688 7.996094 114.222656 8.496094 114.71875 C 8.992188 115.214844 9.535156 115.660156 10.117188 116.050781 C 10.703125 116.441406 11.320312 116.773438 11.972656 117.042969 C 12.621094 117.3125 13.292969 117.515625 13.980469 117.652344 C 14.671875 117.789062 15.367188 117.855469 16.070312 117.855469 L 26.785156 117.855469 L 26.785156 235.714844 C 26.785156 247.554688 36.375 257.144531 48.214844 257.144531 L 128.824219 257.144531 C 125.253906 247.070312 123.214844 236.292969 123.214844 225 C 123.214844 171.738281 166.382812 128.570312 219.644531 128.570312 C 227.015625 128.570312 234.171875 129.464844 241.070312 131.039062 L 241.070312 117.855469 L 251.785156 117.855469 C 252.488281 117.855469 253.1875 117.789062 253.875 117.652344 C 254.566406 117.515625 255.234375 117.3125 255.886719 117.042969 C 256.535156 116.773438 257.152344 116.441406 257.738281 116.050781 C 258.324219 115.660156 258.863281 115.214844 259.363281 114.71875 C 259.859375 114.222656 260.304688 113.679688 260.695312 113.09375 C 261.085938 112.511719 261.414062 111.894531 261.683594 111.242188 C 261.953125 110.59375 262.15625 109.921875 262.292969 109.234375 C 262.429688 108.542969 262.5 107.847656 262.5 107.144531 C 262.5 105.65625 262.203125 104.230469 261.613281 102.863281 C 261.019531 101.5 260.179688 100.308594 259.089844 99.296875 L 258.921875 99.167969 C 258.6875 98.957031 258.441406 98.753906 258.1875 98.5625 L 141.191406 2.867188 C 140.203125 1.949219 139.082031 1.242188 137.828125 0.75 C 136.578125 0.253906 135.277344 0.00390625 133.929688 0 Z M 219.644531 150 C 178.222656 150 144.644531 183.578125 144.644531 225 C 144.644531 266.421875 178.222656 300 219.644531 300 C 261.0625 300 294.644531 266.421875 294.644531 225 C 294.644531 183.578125 261.0625 150 219.644531 150 Z M 251.785156 192.855469 C 254.527344 192.855469 257.265625 193.902344 259.359375 195.996094 C 263.550781 200.183594 263.550781 206.957031 259.359375 211.148438 L 216.503906 254.003906 C 214.414062 256.09375 211.671875 257.144531 208.929688 257.144531 C 206.1875 257.144531 203.441406 256.09375 201.351562 254.003906 L 179.925781 232.574219 C 175.734375 228.386719 175.734375 221.613281 179.925781 217.425781 C 184.113281 213.234375 190.886719 213.234375 195.074219 217.425781 L 208.929688 231.277344 L 244.210938 195.996094 C 246.304688 193.902344 249.046875 192.855469 251.785156 192.855469 Z M 251.785156 192.855469 " fill-opacity="1" fill-rule="nonzero"/></g></svg>