<svg xmlns="http://www.w3.org/2000/svg" xmlns:xlink="http://www.w3.org/1999/xlink" width="400" zoomAndPan="magnify" viewBox="0 0 300 299.999988" height="400" preserveAspectRatio="xMidYMid meet" version="1.0"><defs><clipPath id="id1"><path d="M 0 167.597656 L 300 167.597656 L 300 290.007812 L 0 290.007812 Z M 0 167.597656 " clip-rule="nonzero"/></clipPath><clipPath id="id2"><path d="M 75 10.3125 L 225 10.3125 L 225 233 L 75 233 Z M 75 10.3125 " clip-rule="nonzero"/></clipPath></defs><g clip-path="url(#id1)"><path fill="#706f6f" d="M 298.773438 270.378906 L 258.957031 176.425781 C 256.746094 171.359375 251.6875 167.863281 246.015625 167.863281 L 226.410156 167.863281 C 222.308594 176.425781 217.570312 185.597656 212.1875 196.027344 L 236.851562 196.027344 L 264.65625 261.847656 L 35.234375 261.847656 L 63.042969 196.027344 L 87.675781 196.027344 C 82.324219 185.890625 77.582031 176.425781 73.480469 167.863281 L 53.558594 167.863281 C 47.859375 167.863281 42.828125 171.359375 40.617188 176.425781 L 1.09375 270.378906 C -0.800781 274.835938 -0.160156 279.875 2.371094 283.6875 C 4.902344 287.476562 9.320312 290.007812 14.0625 290.007812 L 286.152344 290.007812 C 290.863281 290.007812 295.3125 287.796875 297.816406 283.6875 C 300.347656 279.582031 300.664062 274.515625 298.773438 270.378906 " fill-opacity="1" fill-rule="nonzero"/></g><g clip-path="url(#id2)"><path fill="#706f6f" d="M 114.871094 85.589844 C 114.871094 66.28125 130.34375 50.785156 149.628906 50.785156 C 168.910156 50.785156 184.382812 66.28125 184.382812 85.589844 C 184.382812 104.898438 168.910156 120.394531 149.628906 120.394531 C 130.34375 120.394531 114.871094 104.898438 114.871094 85.589844 Z M 165.128906 223.257812 C 186.914062 185.277344 224.839844 115.03125 224.839844 85.589844 C 224.839844 44.144531 191.335938 10.59375 149.945312 10.59375 C 108.53125 10.59375 75.054688 44.144531 75.054688 85.589844 C 75.054688 115.03125 112.980469 185.277344 134.765625 223.257812 C 141.398438 234.964844 158.148438 234.964844 165.128906 223.257812 " fill-opacity="1" fill-rule="nonzero"/></g></svg>