<svg xmlns="http://www.w3.org/2000/svg" xmlns:xlink="http://www.w3.org/1999/xlink" width="400" zoomAndPan="magnify" viewBox="0 0 300 299.999988" height="400" preserveAspectRatio="xMidYMid meet" version="1.0"><defs><clipPath id="id1"><path d="M 63 155 L 148 155 L 148 290.316406 L 63 290.316406 Z M 63 155 " clip-rule="nonzero"/></clipPath><clipPath id="id2"><path d="M 152 155 L 237 155 L 237 290.316406 L 152 290.316406 Z M 152 155 " clip-rule="nonzero"/></clipPath><clipPath id="id3"><path d="M 137 9.816406 L 163 9.816406 L 163 91 L 137 91 Z M 137 9.816406 " clip-rule="nonzero"/></clipPath></defs><g clip-path="url(#id1)"><path fill="#706f6f" d="M 63.609375 244.613281 L 147.585938 290.238281 L 147.585938 197.652344 L 63.609375 155.511719 Z M 140.40625 278.484375 L 117.574219 266 L 117.574219 243.160156 L 140.40625 255.644531 Z M 71.183594 176.53125 C 71.183594 175.683594 71.625 174.894531 72.34375 174.445312 C 73.066406 173.996094 73.964844 173.953125 74.726562 174.328125 L 136.304688 204.652344 C 137.148438 205.0625 137.679688 205.917969 137.679688 206.855469 L 137.679688 231.769531 C 137.679688 232.621094 137.238281 233.410156 136.519531 233.855469 C 136.125 234.101562 135.671875 234.226562 135.222656 234.226562 C 134.855469 234.226562 134.480469 234.144531 134.140625 233.976562 L 72.554688 203.652344 C 71.714844 203.238281 71.183594 202.382812 71.183594 201.445312 Z M 71.183594 176.53125 " fill-opacity="1" fill-rule="nonzero"/></g><path fill="#706f6f" d="M 132.761719 208.386719 L 76.097656 180.484375 L 76.097656 199.914062 L 132.761719 227.820312 Z M 123.507812 213.859375 C 123.082031 214.726562 122.210938 215.230469 121.304688 215.230469 C 120.9375 215.230469 120.570312 215.152344 120.222656 214.980469 L 85.203125 197.734375 C 83.984375 197.132812 83.484375 195.660156 84.082031 194.445312 C 84.683594 193.226562 86.160156 192.722656 87.371094 193.324219 L 122.390625 210.570312 C 123.609375 211.167969 124.105469 212.640625 123.507812 213.859375 Z M 123.507812 213.859375 " fill-opacity="1" fill-rule="nonzero"/><path fill="#706f6f" d="M 198.40625 169.003906 L 117.125 125.253906 L 113.507812 127.132812 L 194.734375 170.855469 Z M 198.40625 169.003906 " fill-opacity="1" fill-rule="nonzero"/><path fill="#706f6f" d="M 108.222656 129.871094 L 66.558594 151.492188 L 150.042969 193.382812 L 189.375 173.558594 Z M 108.222656 129.871094 " fill-opacity="1" fill-rule="nonzero"/><path fill="#706f6f" d="M 233.128906 151.503906 L 149.644531 108.375 L 122.40625 122.511719 L 203.761719 166.304688 Z M 233.128906 151.503906 " fill-opacity="1" fill-rule="nonzero"/><g clip-path="url(#id2)"><path fill="#706f6f" d="M 152.5 290.226562 L 236.082031 244.613281 L 236.082031 155.519531 L 152.5 197.648438 Z M 157.730469 258.613281 L 184.40625 245.53125 C 185.625 244.933594 187.097656 245.4375 187.691406 246.65625 C 188.289062 247.875 187.789062 249.347656 186.570312 249.945312 L 159.890625 263.03125 C 159.542969 263.199219 159.175781 263.28125 158.8125 263.28125 C 157.90625 263.28125 157.03125 262.773438 156.605469 261.90625 C 156.007812 260.683594 156.507812 259.210938 157.730469 258.613281 Z M 157.730469 270.585938 L 198.316406 250.683594 C 199.535156 250.085938 201.007812 250.589844 201.601562 251.808594 C 202.199219 253.03125 201.699219 254.503906 200.480469 255.097656 L 159.894531 275.003906 C 159.546875 275.171875 159.175781 275.253906 158.816406 275.253906 C 157.90625 275.253906 157.03125 274.746094 156.609375 273.875 C 156.007812 272.65625 156.507812 271.183594 157.730469 270.585938 Z M 157.730469 270.585938 " fill-opacity="1" fill-rule="nonzero"/></g><g clip-path="url(#id3)"><path fill="#706f6f" d="M 162.398438 72.234375 L 158.273438 72.234375 C 156.914062 72.234375 155.816406 71.132812 155.816406 69.773438 L 155.816406 9.816406 L 144.183594 9.816406 L 144.183594 69.773438 C 144.183594 71.132812 143.085938 72.234375 141.726562 72.234375 L 137.601562 72.234375 L 150 90.878906 Z M 162.398438 72.234375 " fill-opacity="1" fill-rule="nonzero"/></g><path fill="#706f6f" d="M 92.980469 88.28125 C 92.875 88.925781 92.519531 89.5 91.988281 89.878906 L 88.640625 92.285156 L 109.578125 100.199219 L 108.785156 77.820312 L 105.4375 80.226562 C 104.910156 80.605469 104.253906 80.761719 103.605469 80.652344 C 102.964844 80.546875 102.386719 80.191406 102.007812 79.660156 L 67.0625 30.949219 L 57.613281 37.738281 L 92.550781 86.449219 C 92.929688 86.980469 93.085938 87.636719 92.980469 88.28125 Z M 92.980469 88.28125 " fill-opacity="1" fill-rule="nonzero"/><path fill="#706f6f" d="M 80.605469 122.472656 L 61.972656 110.070312 L 61.972656 114.195312 C 61.972656 114.847656 61.714844 115.472656 61.253906 115.933594 C 60.792969 116.394531 60.167969 116.652344 59.515625 116.652344 L 0.113281 116.652344 L 0.113281 128.292969 L 59.515625 128.292969 C 60.875 128.292969 61.972656 129.394531 61.972656 130.753906 L 61.972656 134.878906 Z M 80.605469 122.472656 " fill-opacity="1" fill-rule="nonzero"/><path fill="#706f6f" d="M 208.011719 89.878906 C 207.480469 89.5 207.125 88.921875 207.019531 88.28125 C 206.914062 87.636719 207.070312 86.980469 207.449219 86.449219 L 242.386719 37.738281 L 232.9375 30.949219 L 197.996094 79.664062 C 197.617188 80.191406 197.039062 80.550781 196.398438 80.65625 C 195.75 80.761719 195.097656 80.605469 194.566406 80.226562 L 191.21875 77.820312 L 190.425781 100.199219 L 211.363281 92.285156 Z M 208.011719 89.878906 " fill-opacity="1" fill-rule="nonzero"/><path fill="#706f6f" d="M 240.484375 116.652344 C 239.832031 116.652344 239.207031 116.394531 238.746094 115.929688 C 238.289062 115.46875 238.027344 114.84375 238.027344 114.191406 L 238.027344 110.066406 L 219.394531 122.46875 L 238.027344 134.871094 L 238.027344 130.746094 C 238.027344 129.390625 239.125 128.289062 240.484375 128.289062 L 299.886719 128.289062 L 299.886719 116.648438 Z M 240.484375 116.652344 " fill-opacity="1" fill-rule="nonzero"/></svg>