<svg xmlns="http://www.w3.org/2000/svg" xmlns:xlink="http://www.w3.org/1999/xlink" width="400" zoomAndPan="magnify" viewBox="0 0 300 299.999988" height="400" preserveAspectRatio="xMidYMid meet" version="1.0"><path fill="#706f6f" d="M 80.832031 284.960938 L 48.085938 41.019531 C 47.652344 37.820312 44.699219 35.558594 41.488281 35.988281 C 38.277344 36.417969 36.023438 39.375 36.453125 42.585938 L 69.042969 285.320312 C 62.953125 287.359375 58.554688 293.105469 58.554688 299.878906 L 92.574219 299.878906 C 92.574219 292.648438 87.570312 286.59375 80.832031 284.960938 " fill-opacity="1" fill-rule="nonzero"/><path fill="#706f6f" d="M 240.871094 81.578125 C 244.621094 61.40625 248.472656 41.9375 252.433594 23.328125 C 184.320312 -0.109375 127.945312 63.816406 61.941406 56.117188 L 78.808594 181.742188 C 144.808594 189.449219 201.1875 125.515625 269.296875 148.953125 C 259.71875 125.683594 250.242188 103.273438 240.871094 81.578125 " fill-opacity="1" fill-rule="nonzero"/></svg>