<svg xmlns="http://www.w3.org/2000/svg" xmlns:xlink="http://www.w3.org/1999/xlink" width="400" zoomAndPan="magnify" viewBox="0 0 300 299.999988" height="400" preserveAspectRatio="xMidYMid meet" version="1.0"><defs><clipPath id="id1"><path d="M 192 210.492188 L 299.738281 210.492188 L 299.738281 297.1875 L 192 297.1875 Z M 192 210.492188 " clip-rule="nonzero"/></clipPath><clipPath id="id2"><path d="M 0 3.1875 L 161 3.1875 L 161 164 L 0 164 Z M 0 3.1875 " clip-rule="nonzero"/></clipPath></defs><path fill="#706f6f" d="M 283.804688 218.691406 C 286.585938 215.511719 289.03125 212.191406 291.125 208.757812 L 178.078125 179.351562 L 190.789062 258.390625 C 230.675781 255.683594 264.847656 240.386719 283.804688 218.691406 " fill-opacity="1" fill-rule="nonzero"/><path fill="#706f6f" d="M 161.4375 250.488281 C 115.519531 250.488281 72.605469 234.023438 49.449219 207.515625 C 45.640625 203.160156 42.40625 198.59375 39.777344 193.859375 L 39.777344 202.03125 C 39.777344 245.917969 94.246094 281.492188 161.4375 281.492188 C 167.882812 281.492188 174.214844 281.164062 180.390625 280.535156 L 175.472656 249.964844 C 170.839844 250.304688 166.15625 250.488281 161.4375 250.488281 " fill-opacity="1" fill-rule="nonzero"/><g clip-path="url(#id1)"><path fill="#706f6f" d="M 299.496094 210.9375 C 296.90625 215.523438 293.757812 219.953125 290.0625 224.179688 C 269.285156 247.960938 232.601562 263.652344 192.113281 266.628906 L 197.03125 297.191406 C 255.214844 291.246094 299.738281 258.363281 299.738281 218.691406 L 299.738281 211 L 299.496094 210.9375 " fill-opacity="1" fill-rule="nonzero"/></g><path fill="#706f6f" d="M 283.09375 193.859375 C 283.019531 194 282.9375 194.136719 282.859375 194.277344 L 283.09375 194.335938 L 283.09375 193.859375 " fill-opacity="1" fill-rule="nonzero"/><path fill="#706f6f" d="M 80.214844 172.429688 C 65.664062 172.429688 51.917969 168.917969 39.777344 162.699219 C 39.777344 169.488281 41.082031 176.074219 43.527344 182.363281 C 46.25 189.335938 50.375 195.933594 55.710938 202.03125 C 76.648438 225.996094 116.160156 242.160156 161.4375 242.160156 C 165.726562 242.160156 169.96875 242.011719 174.148438 241.730469 L 161.4375 162.691406 L 274.488281 192.097656 C 276.410156 188.945312 278.042969 185.699219 279.34375 182.363281 C 281.789062 176.074219 283.09375 169.484375 283.09375 162.695312 C 283.09375 120.53125 232.828125 86.042969 169.304688 83.394531 C 169.214844 132.503906 129.285156 172.429688 80.214844 172.429688 " fill-opacity="1" fill-rule="nonzero"/><path fill="#706f6f" d="M 87.472656 142.285156 L 87.472656 129.9375 C 94.695312 129.007812 100.574219 126.382812 104.964844 122.125 C 109.625 117.609375 111.988281 111.582031 111.988281 104.214844 C 111.988281 96.46875 109.625 90.402344 104.964844 86.183594 C 100.472656 82.121094 93.390625 78.007812 83.9375 73.96875 C 80.082031 72.269531 77.445312 70.605469 76.101562 69.015625 C 74.8125 67.492188 74.183594 65.535156 74.183594 63.019531 C 74.183594 60.5625 74.792969 58.527344 75.988281 56.980469 C 77.125 55.507812 78.882812 54.792969 81.371094 54.792969 C 83.824219 54.792969 85.722656 55.699219 87.1875 57.5625 C 88.703125 59.496094 89.46875 62.558594 89.46875 66.664062 L 89.46875 67.914062 L 111.648438 67.914062 L 112.167969 66.613281 L 112.171875 66.382812 C 112.296875 58.449219 110.113281 51.808594 105.679688 46.648438 C 101.460938 41.742188 95.75 38.632812 88.6875 37.40625 L 88.6875 24.160156 L 76.542969 24.160156 L 76.542969 37.105469 C 69.121094 38.003906 63.046875 40.679688 58.480469 45.074219 C 53.632812 49.734375 51.179688 55.730469 51.179688 62.898438 C 51.179688 70.808594 53.511719 76.917969 58.113281 81.054688 C 62.554688 85.042969 69.691406 89.015625 79.296875 92.847656 C 83.035156 94.464844 85.640625 96.105469 87.046875 97.714844 C 88.371094 99.238281 89.042969 101.464844 89.042969 104.335938 C 89.042969 106.800781 88.410156 108.714844 87.109375 110.195312 C 85.847656 111.628906 83.992188 112.324219 81.433594 112.324219 C 78.269531 112.324219 75.78125 111.363281 73.824219 109.382812 C 71.890625 107.425781 70.90625 104.074219 70.90625 99.414062 L 70.90625 98.167969 L 48.921875 98.167969 L 48.269531 99.476562 L 48.265625 99.757812 C 48.097656 109.207031 50.765625 116.503906 56.199219 121.453125 C 61.304688 126.105469 67.734375 128.941406 75.328125 129.882812 L 75.328125 142.285156 L 87.472656 142.285156 " fill-opacity="1" fill-rule="nonzero"/><g clip-path="url(#id2)"><path fill="#706f6f" d="M 12.632812 83.222656 C 12.632812 45.910156 42.949219 15.550781 80.214844 15.550781 C 117.484375 15.550781 147.800781 45.910156 147.800781 83.222656 C 147.800781 120.539062 117.484375 150.894531 80.214844 150.894531 C 42.949219 150.894531 12.632812 120.539062 12.632812 83.222656 Z M 160.152344 83.222656 C 160.152344 39.089844 124.292969 3.1875 80.214844 3.1875 C 36.140625 3.1875 0.28125 39.089844 0.28125 83.222656 C 0.28125 127.355469 36.140625 163.261719 80.214844 163.261719 C 124.292969 163.261719 160.152344 127.355469 160.152344 83.222656 " fill-opacity="1" fill-rule="nonzero"/></g></svg>