<svg xmlns="http://www.w3.org/2000/svg" xmlns:xlink="http://www.w3.org/1999/xlink" width="400" zoomAndPan="magnify" viewBox="0 0 300 299.999988" height="400" preserveAspectRatio="xMidYMid meet" version="1.0"><path fill="#706f6f" d="M 295.242188 0 L 4.78125 0 C 2.140625 0 0 2.140625 0 4.78125 L 0 295.242188 C 0 297.882812 2.140625 300.023438 4.78125 300.023438 L 295.242188 300.023438 C 297.882812 300.023438 300.023438 297.882812 300.023438 295.242188 L 300.023438 4.78125 C 300.023438 2.140625 297.882812 0 295.242188 0 Z M 9.558594 105.078125 L 95.519531 105.078125 L 95.519531 194.945312 L 9.558594 194.945312 Z M 105.078125 105.078125 L 194.945312 105.078125 L 194.945312 194.945312 L 105.078125 194.945312 Z M 194.945312 95.519531 L 105.078125 95.519531 L 105.078125 9.558594 L 194.945312 9.558594 Z M 105.078125 204.503906 L 194.945312 204.503906 L 194.945312 290.464844 L 105.078125 290.464844 Z M 204.503906 105.078125 L 290.464844 105.078125 L 290.464844 194.945312 L 204.503906 194.945312 Z M 290.464844 95.519531 L 204.503906 95.519531 L 204.503906 9.558594 L 290.464844 9.558594 Z M 95.519531 9.558594 L 95.519531 95.519531 L 9.558594 95.519531 L 9.558594 9.558594 Z M 9.558594 204.503906 L 95.519531 204.503906 L 95.519531 290.464844 L 9.558594 290.464844 Z M 204.503906 290.464844 L 204.503906 204.503906 L 290.464844 204.503906 L 290.464844 290.464844 Z M 204.503906 290.464844 " fill-opacity="1" fill-rule="nonzero"/></svg>